<?xml version="1.0" encoding="utf-8"?>
<!-- Generator: Adobe Illustrator 16.0.0, SVG Export Plug-In . SVG Version: 6.00 Build 0)  -->
<!DOCTYPE svg PUBLIC "-//W3C//DTD SVG 1.1//EN" "http://www.w3.org/Graphics/SVG/1.1/DTD/svg11.dtd">
<svg version="1.1" id="Layer_1" xmlns="http://www.w3.org/2000/svg" xmlns:xlink="http://www.w3.org/1999/xlink" x="0px" y="0px"
	 width="45px" height="45px" viewBox="0 0 45 45" enable-background="new 0 0 45 45" xml:space="preserve">
<g>
	<path fill-rule="evenodd" clip-rule="evenodd" fill="#454545" d="M13.769,23.337c2.832,0,5.663-0.703,5.663,1.886
		c0,2.58-3.067,1.877-5.663,1.877c-0.476,0-0.241,0-0.241-0.231v-3.292C13.528,23.337,13.292,23.337,13.769,23.337L13.769,23.337z
		 M17.308,20.753h-3.78v-3.291h3.78C19.432,17.462,19.432,20.753,17.308,20.753L17.308,20.753z M10.459,29.688h6.612
		c3.069,0,5.665-0.942,5.665-4.466c0-1.646-1.179-3.06-2.596-3.531V21.46c2.36-0.473,3.066-4.938-0.236-6.115
		c-1.419-0.703-7.32-0.467-9.445-0.467V29.688z"/>
	<path fill-rule="evenodd" clip-rule="evenodd" fill="#454545" d="M26.987,23.337c0-2.584,3.778-3.291,4.487-0.703
		c0,0.232,0,0.232,0,0.472c-0.236,0.231,0,0-0.236,0C30.527,23.105,26.987,23.105,26.987,23.337L26.987,23.337z M23.684,24.048
		c0,3.755,1.648,6.112,5.9,6.112c2.361,0,4.251-1.646,4.722-3.764h-2.597c-0.471,1.646-4.957,2.35-4.957-1.174h7.789
		c0-2.117,0-3.531-1.418-4.942c-1.178-1.645-4.246-1.881-6.371-1.173C25.098,19.814,23.684,21.927,23.684,24.048L23.684,24.048z"/>
	<path fill-rule="evenodd" clip-rule="evenodd" fill="#454545" d="M26.044,17.226h6.136v-1.174c0-0.236,0-0.236-0.234-0.236h-5.901
		V17.226z"/>
</g>
<g>
</g>
<g>
</g>
<g>
</g>
<g>
</g>
<g>
</g>
<g>
</g>
<g>
</g>
<g>
</g>
<g>
</g>
<g>
</g>
<g>
</g>
<g>
</g>
<g>
</g>
<g>
</g>
<g>
</g>
</svg>
