<?xml version="1.0" encoding="utf-8"?>
<!-- Generator: Adobe Illustrator 16.0.0, SVG Export Plug-In . SVG Version: 6.00 Build 0)  -->
<!DOCTYPE svg PUBLIC "-//W3C//DTD SVG 1.1//EN" "http://www.w3.org/Graphics/SVG/1.1/DTD/svg11.dtd">
<svg version="1.1" id="Layer_1" xmlns="http://www.w3.org/2000/svg" xmlns:xlink="http://www.w3.org/1999/xlink" x="0px" y="0px"
	 width="45px" height="45px" viewBox="0 0 45 45" enable-background="new 0 0 45 45" xml:space="preserve">
<g>
	<path fill-rule="evenodd" clip-rule="evenodd" fill="#454545" d="M18.769,13.099c2.504,0,5.012,0,7.516,0
		c0.199,0.031,0.398,0.075,0.596,0.088c2.787,0.148,4.857,2.174,4.934,4.963c0.07,2.925,0.074,5.864-0.008,8.802
		c-0.07,2.738-2.139,4.82-4.875,4.889c-2.936,0.086-5.882,0.074-8.815,0.012c-2.432-0.063-4.276-1.701-4.764-4.068
		c-0.103-0.49-0.149-0.98-0.221-1.484c0-2.504,0-5.025,0-7.541c0.028-0.218,0.074-0.429,0.09-0.646
		c0.14-2.436,1.684-4.274,4.031-4.783C17.753,13.217,18.266,13.167,18.769,13.099z M22.515,14.838c-1.392,0-2.786,0-4.181,0.057
		c-2.016,0.093-3.345,1.36-3.397,3.373c-0.075,2.838-0.075,5.684,0,8.527c0.053,1.994,1.369,3.299,3.351,3.355
		c2.817,0.068,5.638,0.068,8.451,0.006c2-0.049,3.33-1.379,3.385-3.385c0.066-2.826,0.063-5.653,0-8.479
		c-0.043-1.863-1.127-3.087-2.969-3.317C25.621,14.782,22.515,14.789,22.515,14.838z"/>
	<path fill-rule="evenodd" clip-rule="evenodd" fill="#454545" d="M27.344,22.516c0.004,2.703-2.133,4.852-4.817,4.852
		c-2.677,0-4.804-2.125-4.816-4.809c-0.021-2.695,2.103-4.851,4.792-4.863C25.191,17.677,27.336,19.813,27.344,22.516z
		 M25.639,22.54c0-1.758-1.365-3.137-3.112-3.13c-1.751,0-3.118,1.372-3.111,3.13c0,1.733,1.366,3.112,3.087,3.112
		C24.254,25.666,25.637,24.287,25.639,22.54z"/>
	<path fill-rule="evenodd" clip-rule="evenodd" fill="#454545" d="M27.549,16.379c0.646,0,1.115,0.484,1.109,1.131
		c-0.004,0.633-0.516,1.137-1.137,1.124c-0.611-0.007-1.131-0.534-1.125-1.149S26.922,16.366,27.549,16.379z"/>
</g>
<g>
</g>
<g>
</g>
<g>
</g>
<g>
</g>
<g>
</g>
<g>
</g>
<g>
</g>
<g>
</g>
<g>
</g>
<g>
</g>
<g>
</g>
<g>
</g>
<g>
</g>
<g>
</g>
<g>
</g>
</svg>
