<?xml version="1.0" encoding="utf-8"?>
<!-- Generator: Adobe Illustrator 16.0.0, SVG Export Plug-In . SVG Version: 6.00 Build 0)  -->
<!DOCTYPE svg PUBLIC "-//W3C//DTD SVG 1.1//EN" "http://www.w3.org/Graphics/SVG/1.1/DTD/svg11.dtd">
<svg version="1.1" id="Layer_1" xmlns="http://www.w3.org/2000/svg" xmlns:xlink="http://www.w3.org/1999/xlink" x="0px" y="0px"
	 width="20px" height="20px" viewBox="0 0 20 20" enable-background="new 0 0 20 20" xml:space="preserve">
<g>
	<g>
		<path fill="#454545" d="M17.852,3.171H2.145c-0.149,0-0.285,0.057-0.396,0.146c-0.111,0.104-0.164,0.239-0.164,0.42v1.752
			c0,0.095,0.031,0.139,0.097,0.139l8.251,4.701l0.064,0.035c0.046,0,0.077-0.016,0.102-0.035l7.985-4.701
			c0.042-0.023,0.072-0.039,0.102-0.039c0.017,0,0.053-0.005,0.098-0.034c0.088,0,0.133-0.04,0.133-0.126V3.736
			c0-0.181-0.061-0.315-0.166-0.42C18.141,3.228,18.005,3.171,17.852,3.171L17.852,3.171z M6.585,10.227
			c0.021-0.02,0.034-0.054,0.034-0.1c0-0.064-0.018-0.094-0.067-0.094L1.816,7.311c-0.067-0.021-0.121-0.021-0.166,0
			c-0.044,0-0.065,0.029-0.065,0.105v7.115c0,0.072,0.031,0.115,0.097,0.136h0.067c0.045,0,0.067-0.01,0.067-0.035L6.585,10.227z
			 M12.352,10.758c-0.024-0.068-0.076-0.074-0.162-0.035l-1.827,1.063c-0.219,0.136-0.455,0.136-0.698,0l-1.583-0.891
			c-0.069-0.045-0.127-0.045-0.17,0L1.85,16.525c-0.024,0.019-0.034,0.063-0.034,0.127c0,0.021,0.021,0.063,0.063,0.102
			c0.135,0.051,0.225,0.075,0.266,0.075h15.539c0.049,0,0.09-0.024,0.135-0.075c0-0.09-0.017-0.14-0.033-0.164L12.352,10.758z
			 M18.316,7.181h-0.133l-4.507,2.681c-0.042,0-0.067,0.032-0.067,0.101c-0.021,0.021-0.01,0.061,0.031,0.101l4.512,4.872
			c0.043,0.045,0.074,0.06,0.097,0.06h0.067c0.062-0.06,0.099-0.104,0.099-0.125V7.311C18.415,7.264,18.378,7.225,18.316,7.181
			L18.316,7.181z"/>
	</g>
</g>
</svg>
