<?xml version="1.0" encoding="utf-8"?>
<!-- Generator: Adobe Illustrator 16.0.0, SVG Export Plug-In . SVG Version: 6.00 Build 0)  -->
<!DOCTYPE svg PUBLIC "-//W3C//DTD SVG 1.1//EN" "http://www.w3.org/Graphics/SVG/1.1/DTD/svg11.dtd">
<svg version="1.1" id="Layer_1" xmlns="http://www.w3.org/2000/svg" xmlns:xlink="http://www.w3.org/1999/xlink" x="0px" y="0px"
	 width="20px" height="20px" viewBox="0 0 20 20" enable-background="new 0 0 20 20" xml:space="preserve">
<g>
	<path fill="#454545" d="M0.843,6.403c0-0.264,0-0.527,0-0.791c0.008-0.043,0.02-0.083,0.025-0.127
		c0.059-0.48,0.157-0.951,0.34-1.399c0.358-0.878,0.907-1.61,1.666-2.188C3.423,1.48,4.028,1.179,4.697,1.016
		c0.3-0.075,0.609-0.115,0.914-0.172c0.264,0,0.527,0,0.79,0c0.042,0.011,0.083,0.027,0.125,0.03
		C7.261,0.959,7.951,1.183,8.59,1.559c0.06,0.034,0.148,0.04,0.222,0.035C9.24,1.568,9.666,1.505,10.093,1.51
		c1.229,0.011,2.405,0.275,3.519,0.801C14.268,2.62,14.877,3,15.43,3.466c0.674,0.568,1.254,1.22,1.729,1.966
		c0.571,0.892,0.963,1.855,1.17,2.893c0.188,0.948,0.219,1.903,0.08,2.862c-0.013,0.084,0.016,0.185,0.057,0.26
		c0.246,0.436,0.437,0.892,0.546,1.38c0.059,0.255,0.098,0.515,0.146,0.771c0,0.254,0,0.506,0,0.76
		c-0.009,0.033-0.019,0.066-0.021,0.099c-0.102,0.998-0.438,1.901-1.057,2.696c-0.709,0.914-1.619,1.521-2.732,1.82
		c-0.322,0.088-0.658,0.125-0.99,0.184c-0.252,0-0.506,0-0.76,0c-0.041-0.01-0.082-0.024-0.123-0.03
		c-0.697-0.08-1.354-0.281-1.961-0.629c-0.137-0.078-0.26-0.104-0.414-0.084c-1.003,0.144-2,0.089-2.989-0.133
		c-1.311-0.298-2.483-0.878-3.519-1.729c-0.688-0.564-1.271-1.23-1.751-1.982c-0.57-0.895-0.961-1.856-1.169-2.894
		C1.483,10.738,1.454,9.792,1.587,8.84c0.014-0.095-0.014-0.212-0.061-0.299C1.287,8.103,1.093,7.648,0.987,7.16
		C0.933,6.908,0.891,6.654,0.843,6.403z M10.087,15.496c0.117,0,0.234,0.004,0.351-0.001c0.775-0.035,1.525-0.183,2.23-0.521
		c0.803-0.385,1.404-0.953,1.723-1.797c0.178-0.466,0.211-0.951,0.164-1.439c-0.061-0.641-0.313-1.193-0.795-1.629
		c-0.506-0.459-1.113-0.738-1.758-0.92c-0.834-0.235-1.676-0.437-2.515-0.655C9,8.407,8.521,8.265,8.138,7.911
		C7.823,7.62,7.777,7.129,8.037,6.785c0.264-0.35,0.633-0.543,1.047-0.61c0.391-0.06,0.795-0.068,1.19-0.054
		c0.593,0.018,1.06,0.299,1.388,0.794c0.156,0.235,0.291,0.485,0.459,0.711c0.111,0.154,0.238,0.333,0.402,0.409
		c0.797,0.373,1.588-0.231,1.547-0.995c-0.021-0.406-0.17-0.769-0.416-1.088c-0.588-0.761-1.402-1.142-2.314-1.337
		c-0.628-0.133-1.266-0.148-1.906-0.106C8.579,4.561,7.755,4.732,7.009,5.177c-0.652,0.388-1.117,0.93-1.28,1.68
		C5.663,7.166,5.664,7.494,5.674,7.813C5.686,8.23,5.827,8.614,6.073,8.955c0.34,0.467,0.791,0.8,1.313,1.036
		c0.867,0.395,1.793,0.587,2.713,0.8c0.506,0.118,1.019,0.225,1.474,0.496c0.694,0.412,0.852,1.215,0.346,1.838
		c-0.221,0.27-0.526,0.443-0.858,0.557c-0.459,0.157-0.933,0.2-1.414,0.172c-0.887-0.057-1.537-0.461-1.914-1.285
		c-0.136-0.297-0.291-0.588-0.483-0.848c-0.261-0.352-0.776-0.438-1.213-0.255c-0.402,0.168-0.64,0.548-0.605,0.986
		c0.065,0.843,0.517,1.478,1.121,2.016c0.489,0.435,1.073,0.691,1.707,0.851C8.861,15.47,9.473,15.5,10.087,15.496z"/>
</g>
</svg>
