<?xml version="1.0" encoding="utf-8"?>
<!-- Generator: Adobe Illustrator 16.0.0, SVG Export Plug-In . SVG Version: 6.00 Build 0)  -->
<!DOCTYPE svg PUBLIC "-//W3C//DTD SVG 1.1//EN" "http://www.w3.org/Graphics/SVG/1.1/DTD/svg11.dtd">
<svg version="1.1" id="Layer_1" xmlns="http://www.w3.org/2000/svg" xmlns:xlink="http://www.w3.org/1999/xlink" x="0px" y="0px"
	 width="100px" height="23px" viewBox="7.998 1.381 100 23" enable-background="new 7.998 1.381 100 23" xml:space="preserve">
<g>
	<g>
		<path fill="#333333" d="M95.352,14.375c0,0,1.369,0,1.795,0c0.59,0,0.828-0.328,0.834-0.749c0.002-0.165,0.012-0.335,0.012-0.509
			c0-3.71-2.881-6.718-6.432-6.718c-3.553,0-6.43,3.008-6.43,6.718c0,3.711,2.877,6.719,6.43,6.719c1.996,0,3.699-0.51,4.957-1.764
			c0.387-0.387,0.385-0.758,0.07-1.131c-0.336-0.398-0.785-0.928-0.971-1.145c-0.313-0.363-0.729-0.387-1.031-0.146
			c-0.875,0.703-1.881,1.043-3.025,1.043c-1.467,0-2.713-0.965-3.201-2.317h6.496L95.352,14.375L95.352,14.375z M91.561,9.542
			c1.311,0,2.451,0.771,3.027,1.903h-6.051C89.111,10.315,90.248,9.542,91.561,9.542z"/>
		<path fill="#333333" d="M59.186,14.375c0,0,1.37,0,1.797,0c0.588,0,0.828-0.328,0.832-0.749c0.004-0.165,0.013-0.335,0.013-0.509
			c0.001-3.71-2.881-6.718-6.432-6.718c-3.552,0-6.43,3.008-6.43,6.718c0,3.711,2.879,6.719,6.43,6.719
			c1.994,0,3.7-0.51,4.956-1.764c0.387-0.387,0.385-0.758,0.069-1.131c-0.335-0.398-0.785-0.928-0.969-1.145
			c-0.313-0.363-0.729-0.387-1.034-0.146c-0.875,0.703-1.877,1.043-3.024,1.043c-1.465,0-2.712-0.965-3.199-2.317h6.496
			L59.186,14.375L59.186,14.375z M55.394,9.542c1.313,0,2.451,0.771,3.025,1.903h-6.05C52.945,10.315,54.083,9.542,55.394,9.542z"/>
		<path fill="#333333" d="M63.66,2.29c0.715,0,1.697,0,2.143,0c0.676,0,0.879,0.333,0.879,0.899c0,3.516,0,12.975,0,15.822
			c0,0.58-0.303,0.824-0.831,0.824c-0.72,0-1.714,0-2.169,0c-0.491,0-0.853-0.18-0.853-0.9c0-2.951,0-12.335,0-15.842
			C62.831,2.695,63.012,2.29,63.66,2.29z"/>
		<path fill="#333333" d="M30.01,6.95c-0.767,2.185-3.166,8.704-3.166,8.704s-2.211-6.525-2.939-8.703
			C23.84,6.759,23.655,6.4,23.052,6.4c-0.477,0-1.474,0-2.278,0c-0.966,0-0.885,0.783-0.779,1.045
			c1.224,3.054,4.894,12.216,4.894,12.216s-0.995,2.486-1.329,3.314c-0.099,0.248-0.12,0.998,0.79,0.998c0.825,0,1.859,0,2.351,0
			c0.468,0,0.69-0.193,0.828-0.537c0.968-2.418,4.939-12.334,6.392-15.935c0.306-0.759-0.248-1.103-0.69-1.103
			c-0.505,0-1.682-0.002-2.407-0.002C30.352,6.396,30.138,6.586,30.01,6.95z"/>
		<path fill="#333333" d="M86.287,18.602c-1.252-1.66-5.037-6.62-5.037-6.62s3.061-3.172,4.07-4.239
			c0.584-0.617,0.352-1.342-0.492-1.345c-0.57-0.001-1.813-0.008-2.473-0.002c-0.469,0.005-0.73,0.339-0.83,0.453
			c-1.006,1.12-4.018,4.481-4.018,4.481s0-6.188,0-8.249c0-0.549-0.354-0.789-0.889-0.789c-0.441,0-1.408,0-2.119,0
			c-0.555,0-0.844,0.264-0.844,0.832c0,2.863,0,12.335,0,15.858c0,0.412,0.078,0.887,0.857,0.887c0.729,0,1.727,0,2.18,0
			c0.781,0,0.814-0.619,0.814-0.824c0-0.791,0-3.166,0-3.166l1.277-1.33c0,0,2.66,3.676,3.551,4.9
			c0.078,0.104,0.289,0.42,0.775,0.42c0.709,0,2.021,0,2.561,0C86.52,19.869,86.758,19.227,86.287,18.602z"/>
		<path fill="#333333" d="M69.033,6.395c0.717,0,1.715,0,2.168,0c0.537,0,0.885,0.168,0.885,0.839c0,2.482,0,9.229,0,11.769
			c0,0.5-0.234,0.836-0.82,0.836c-0.465,0-1.494,0-2.225,0c-0.654,0-0.807-0.393-0.807-0.861c0-2.529,0-9.224,0-11.707
			C68.234,6.722,68.449,6.395,69.033,6.395z"/>
		<path fill="#333333" d="M69.049,1.789c0.725,0,1.738,0,2.197,0c0.406,0,0.84,0.132,0.84,0.85c0,0.618,0,1.406,0,1.777
			c0,0.551-0.217,0.895-0.875,0.895c-0.445,0-1.432,0-2.148,0c-0.547,0-0.828-0.264-0.828-0.85c0-0.64,0-1.468,0-1.854
			C68.234,2.207,68.383,1.789,69.049,1.789z"/>
		<path fill="#333333" d="M41.946,6.395c-1.297,0-2.503,0.423-3.504,1.146c0,0,0-0.307,0-0.409c0-0.322-0.251-0.712-0.716-0.712
			c-0.733,0-1.832,0-2.315,0c-0.364,0-0.82,0.157-0.82,0.877c0,2.911,0,12.28,0,15.776c0,0.559,0.205,0.893,0.906,0.893
			c0.702,0,1.623,0,2.052,0c0.555,0,0.894-0.191,0.894-0.885c0-1.098,0-4.389,0-4.389c1.002,0.723,2.207,1.146,3.504,1.146
			c3.465,0,6.275-3.01,6.275-6.723C48.222,9.404,45.411,6.395,41.946,6.395z M41.946,16.705c-1.851,0-3.352-1.605-3.352-3.591
			c0-1.982,1.501-3.591,3.352-3.591c1.853,0,3.354,1.608,3.354,3.591C45.3,15.1,43.798,16.705,41.946,16.705z"/>
		<path fill="#333333" d="M15.422,6.395c-1.398,0-2.653,0.685-3.513,1.769c0,0,0-3.933,0-5.2c0-0.251-0.232-0.673-0.762-0.673
			c-0.727,0-1.799,0-2.255,0c-0.396,0-0.836,0.147-0.836,0.878c0,2.925,0,12.342,0,15.854c0,0.41,0.166,0.814,0.819,0.814
			c0.715,0,1.705,0,2.154,0c0.535,0,0.879-0.262,0.879-0.82c0-0.967,0-3.867,0-3.867v-2.67v-0.233
			c0.063-1.102,1.012-1.977,2.176-1.977c1.197,0,2.168,0.925,2.184,2.068l0,0v4.493c0,0,0,1.662,0,2.217
			c0,0.32,0.116,0.789,0.83,0.789c0.712,0,1.69,0,2.137,0c0.659,0,0.886-0.334,0.886-0.877c0-1.826,0-7.304,0-7.304
			C20.121,8.751,18.016,6.395,15.422,6.395z"/>
		<path fill="#333333" d="M106.906,12.856c-1.104-1.229-3.615-1.664-3.615-1.664c-0.732-0.169-1.234-0.418-1.234-0.855
			c0-0.592,0.545-0.783,1.264-0.738c0.469,0.03,1.176,0.406,1.443,0.655c0.225,0.209,0.688,0.355,1.039,0.007
			c0.352-0.352,0.809-0.803,1.025-1.011c0.396-0.385,0.402-0.797,0.107-1.144c-0.867-1.026-2.271-1.707-3.867-1.707
			c-2.645,0-4.746,1.358-4.746,4.063c0,0.771,0.248,1.491,0.682,2.104c1.066,1.349,2.924,1.933,3.785,2.14
			c0.715,0.167,1.277,0.455,1.26,0.916c-0.025,0.688-0.676,0.91-1.5,0.951c-0.781,0.016-1.717-0.533-2.32-1.006
			c-0.512-0.403-0.824-0.223-1.145,0.119c-0.188,0.201-0.586,0.645-0.895,0.965c-0.373,0.389-0.354,0.627-0.164,1.016
			c0.809,1.639,3.189,2.197,4.891,2.168c2.773-0.051,5.023-1.945,5.023-4.342C107.938,14.5,107.553,13.586,106.906,12.856z"/>
	</g>
</g>
</svg>
