<?xml version="1.0" encoding="utf-8"?>
<!-- Generator: Adobe Illustrator 16.0.0, SVG Export Plug-In . SVG Version: 6.00 Build 0)  -->
<!DOCTYPE svg PUBLIC "-//W3C//DTD SVG 1.1//EN" "http://www.w3.org/Graphics/SVG/1.1/DTD/svg11.dtd">
<svg version="1.1" id="Layer_1" xmlns="http://www.w3.org/2000/svg" xmlns:xlink="http://www.w3.org/1999/xlink" x="0px" y="0px"
	 width="100px" height="23px" viewBox="0 0 100 23" enable-background="new 0 0 100 23" xml:space="preserve">
<g>
	<g>
		<path fill="#DAEF3A" d="M87.354,12.994c0,0,1.369,0,1.795,0c0.59,0,0.828-0.328,0.834-0.749c0.002-0.165,0.014-0.335,0.014-0.509
			c0-3.71-2.883-6.718-6.434-6.718c-3.553,0-6.43,3.008-6.43,6.718c0,3.711,2.877,6.719,6.43,6.719c1.996,0,3.699-0.51,4.957-1.764
			c0.387-0.387,0.385-0.758,0.07-1.131c-0.336-0.398-0.785-0.928-0.971-1.146c-0.313-0.361-0.729-0.387-1.031-0.146
			c-0.875,0.703-1.881,1.043-3.025,1.043c-1.467,0-2.713-0.965-3.201-2.316h6.496H87.354L87.354,12.994z M83.563,8.161
			c1.313,0,2.451,0.771,3.027,1.903h-6.051C81.113,8.934,82.25,8.161,83.563,8.161z"/>
		<path fill="#DAEF3A" d="M51.188,12.994c0,0,1.371,0,1.797,0c0.588,0,0.828-0.328,0.832-0.749c0.004-0.165,0.015-0.335,0.015-0.509
			c0.001-3.71-2.881-6.718-6.433-6.718c-3.553,0-6.431,3.008-6.431,6.718c0,3.711,2.88,6.719,6.431,6.719
			c1.994,0,3.699-0.51,4.955-1.764c0.389-0.387,0.385-0.758,0.069-1.131c-0.335-0.398-0.784-0.928-0.969-1.146
			c-0.313-0.361-0.729-0.387-1.034-0.146c-0.875,0.703-1.877,1.043-3.023,1.043c-1.465,0-2.713-0.965-3.199-2.316h6.496H51.188
			L51.188,12.994z M47.396,8.161c1.313,0,2.451,0.771,3.024,1.903h-6.05C44.947,8.934,46.085,8.161,47.396,8.161z"/>
		<path fill="#DAEF3A" d="M55.662,0.909c0.715,0,1.697,0,2.143,0c0.676,0,0.879,0.333,0.879,0.899c0,3.516,0,12.975,0,15.822
			c0,0.58-0.303,0.824-0.83,0.824c-0.721,0-1.715,0-2.17,0c-0.49,0-0.853-0.18-0.853-0.899c0-2.951,0-12.334,0-15.843
			C54.833,1.314,55.014,0.909,55.662,0.909z"/>
		<path fill="#DAEF3A" d="M22.012,5.569c-0.767,2.185-3.166,8.704-3.166,8.704s-2.211-6.525-2.938-8.703
			c-0.065-0.192-0.25-0.551-0.854-0.551c-0.477,0-1.474,0-2.277,0c-0.966,0-0.885,0.783-0.779,1.045
			c1.225,3.054,4.895,12.216,4.895,12.216s-0.995,2.485-1.329,3.313c-0.1,0.248-0.12,0.998,0.79,0.998c0.824,0,1.858,0,2.351,0
			c0.468,0,0.69-0.193,0.828-0.537c0.968-2.418,4.938-12.333,6.392-15.936c0.307-0.759-0.248-1.103-0.689-1.103
			c-0.505,0-1.683-0.002-2.407-0.002C22.354,5.015,22.141,5.205,22.012,5.569z"/>
		<path fill="#DAEF3A" d="M78.289,17.221c-1.252-1.66-5.037-6.62-5.037-6.62s3.061-3.172,4.07-4.239
			c0.584-0.617,0.352-1.342-0.492-1.345c-0.57-0.001-1.813-0.008-2.473-0.002c-0.469,0.005-0.73,0.339-0.83,0.453
			c-1.006,1.12-4.02,4.481-4.02,4.481s0-6.188,0-8.249c0-0.549-0.354-0.789-0.889-0.789c-0.441,0-1.408,0-2.119,0
			c-0.557,0-0.846,0.264-0.846,0.832c0,2.863,0,12.335,0,15.858c0,0.412,0.078,0.887,0.857,0.887c0.729,0,1.727,0,2.18,0
			c0.781,0,0.814-0.619,0.814-0.824c0-0.791,0-3.166,0-3.166l1.277-1.33c0,0,2.66,3.676,3.551,4.9
			c0.078,0.104,0.289,0.42,0.775,0.42c0.709,0,2.021,0,2.561,0C78.521,18.488,78.76,17.846,78.289,17.221z"/>
		<path fill="#DAEF3A" d="M61.035,5.014c0.717,0,1.715,0,2.168,0c0.537,0,0.885,0.168,0.885,0.839c0,2.482,0,9.229,0,11.769
			c0,0.5-0.234,0.836-0.82,0.836c-0.465,0-1.494,0-2.225,0c-0.654,0-0.807-0.394-0.807-0.86c0-2.528,0-9.225,0-11.708
			C60.236,5.341,60.451,5.014,61.035,5.014z"/>
		<path fill="#DAEF3A" d="M61.051,0.408c0.725,0,1.738,0,2.197,0c0.406,0,0.84,0.132,0.84,0.85c0,0.618,0,1.406,0,1.777
			c0,0.551-0.217,0.895-0.875,0.895c-0.445,0-1.432,0-2.148,0c-0.547,0-0.828-0.264-0.828-0.85c0-0.64,0-1.468,0-1.854
			C60.236,0.826,60.385,0.408,61.051,0.408z"/>
		<path fill="#DAEF3A" d="M33.948,5.014c-1.297,0-2.503,0.423-3.504,1.146c0,0,0-0.307,0-0.409c0-0.322-0.251-0.712-0.716-0.712
			c-0.733,0-1.832,0-2.315,0c-0.364,0-0.82,0.157-0.82,0.877c0,2.911,0,12.28,0,15.776c0,0.559,0.205,0.893,0.906,0.893
			c0.702,0,1.623,0,2.052,0c0.556,0,0.895-0.19,0.895-0.885c0-1.099,0-4.39,0-4.39c1.002,0.724,2.207,1.146,3.504,1.146
			c3.465,0,6.275-3.01,6.275-6.723C40.225,8.023,37.413,5.014,33.948,5.014z M33.948,15.324c-1.851,0-3.353-1.605-3.353-3.591
			c0-1.982,1.502-3.591,3.353-3.591c1.853,0,3.354,1.608,3.354,3.591C37.302,13.719,35.8,15.324,33.948,15.324z"/>
		<path fill="#DAEF3A" d="M7.424,5.014c-1.397,0-2.652,0.685-3.513,1.769c0,0,0-3.933,0-5.2c0-0.251-0.232-0.673-0.762-0.673
			c-0.728,0-1.799,0-2.255,0c-0.396,0-0.836,0.147-0.836,0.878c0,2.925,0,12.342,0,15.854c0,0.41,0.166,0.813,0.818,0.813
			c0.715,0,1.705,0,2.154,0c0.535,0,0.879-0.262,0.879-0.818c0-0.969,0-3.867,0-3.867V11.1v-0.233
			c0.063-1.102,1.012-1.977,2.176-1.977c1.197,0,2.168,0.925,2.185,2.068l0,0v4.493c0,0,0,1.662,0,2.217
			c0,0.32,0.115,0.789,0.83,0.789c0.712,0,1.689,0,2.137,0c0.659,0,0.886-0.334,0.886-0.877c0-1.826,0-7.304,0-7.304
			C12.123,7.37,10.019,5.014,7.424,5.014z"/>
		<path fill="#DAEF3A" d="M98.908,11.475c-1.104-1.229-3.615-1.665-3.615-1.665c-0.732-0.169-1.234-0.418-1.234-0.855
			c0-0.592,0.545-0.783,1.264-0.738c0.471,0.03,1.178,0.406,1.443,0.655c0.225,0.209,0.688,0.355,1.039,0.007
			c0.352-0.352,0.809-0.803,1.025-1.011c0.396-0.385,0.402-0.797,0.107-1.144c-0.867-1.026-2.271-1.707-3.867-1.707
			c-2.646,0-4.746,1.358-4.746,4.063c0,0.771,0.248,1.491,0.682,2.104c1.066,1.35,2.924,1.934,3.785,2.141
			c0.715,0.167,1.277,0.455,1.26,0.916c-0.025,0.688-0.676,0.91-1.5,0.951c-0.781,0.016-1.717-0.533-2.32-1.008
			c-0.512-0.401-0.824-0.223-1.145,0.119c-0.188,0.201-0.586,0.646-0.895,0.965c-0.373,0.391-0.354,0.627-0.164,1.018
			c0.809,1.641,3.188,2.197,4.891,2.168c2.773-0.051,5.023-1.943,5.023-4.342C99.939,13.119,99.555,12.205,98.908,11.475z"/>
	</g>
</g>
</svg>
