<?xml version="1.0" encoding="utf-8"?>
<!-- Generator: Adobe Illustrator 16.0.0, SVG Export Plug-In . SVG Version: 6.00 Build 0)  -->
<!DOCTYPE svg PUBLIC "-//W3C//DTD SVG 1.1//EN" "http://www.w3.org/Graphics/SVG/1.1/DTD/svg11.dtd">
<svg version="1.1" id="Layer_1" xmlns="http://www.w3.org/2000/svg" xmlns:xlink="http://www.w3.org/1999/xlink" x="0px" y="0px"
	 width="200px" height="100px" viewBox="0 0 200 100" enable-background="new 0 0 200 100" xml:space="preserve">
<g>
	<g>
		<g>
			<g>
				<g>
					<polygon fill="#04A8DD" points="62.904,29.113 54.409,24.326 54.431,22.023 62.927,26.811 					"/>
					<polygon fill="#04A8DD" points="62.904,33.11 54.409,28.322 54.431,26.02 62.927,30.808 					"/>
					<polygon fill="#04A8DD" points="62.904,37.107 54.409,32.319 54.431,30.017 62.927,34.805 					"/>
					<polygon fill="#04A8DD" points="62.904,41.104 54.409,36.316 54.431,34.014 62.927,38.802 					"/>
					<polygon fill="#04A8DD" points="62.904,45.101 54.409,40.313 54.431,38.011 62.927,42.798 					"/>
					<polygon fill="#04A8DD" points="62.904,49.098 54.409,44.31 54.431,42.008 62.927,46.794 					"/>
					<polygon fill="#04A8DD" points="62.904,53.095 54.409,48.307 54.431,46.004 62.927,50.791 					"/>
					<polygon fill="#04A8DD" points="62.904,57.091 54.409,52.304 54.431,50 62.927,54.787 					"/>
					<polygon fill="#04A8DD" points="62.904,61.087 54.409,56.3 54.431,53.997 62.927,58.785 					"/>
					<polygon fill="#04A8DD" points="62.904,65.083 54.409,60.296 54.431,57.994 62.927,62.782 					"/>
					<polygon fill="#04A8DD" points="62.904,69.08 54.409,64.293 54.431,61.991 62.927,66.779 					"/>
					<polygon fill="#04A8DD" points="62.904,73.077 54.409,68.29 54.431,65.988 62.927,70.774 					"/>
					<polygon fill="#04A8DD" points="62.904,77.073 54.409,72.286 54.431,69.983 62.927,74.772 					"/>
					<polygon fill="#04A8DD" points="54.409,77.048 54.431,73.981 60.151,77.204 					"/>
				</g>
			</g>
			<polygon fill="#FFFFFF" points="69.81,49.874 73.233,51.382 73.233,73.429 69.81,71.817 			"/>
			<polygon fill="#FFFFFF" points="67.755,74.071 67.755,35.847 64.445,34.32 64.445,77.204 67.07,77.204 67.755,77.204 
				83.961,77.204 			"/>
		</g>
		<g>
			<g>
				<polygon fill="#FFFFFF" points="44.652,29.113 53.147,24.326 53.125,22.023 44.63,26.811 				"/>
				<polygon fill="#FFFFFF" points="44.652,33.11 53.147,28.322 53.125,26.02 44.63,30.808 				"/>
				<polygon fill="#FFFFFF" points="44.652,37.107 53.147,32.319 53.125,30.017 44.63,34.805 				"/>
				<polygon fill="#FFFFFF" points="44.652,41.104 53.147,36.316 53.125,34.014 44.63,38.802 				"/>
				<polygon fill="#FFFFFF" points="44.652,45.101 53.147,40.313 53.125,38.011 44.63,42.798 				"/>
				<polygon fill="#FFFFFF" points="44.652,49.098 53.147,44.31 53.125,42.008 44.63,46.794 				"/>
				<polygon fill="#FFFFFF" points="44.652,53.095 53.147,48.307 53.125,46.004 44.63,50.791 				"/>
				<polygon fill="#FFFFFF" points="44.652,57.091 53.147,52.304 53.125,50 44.63,54.787 				"/>
				<polygon fill="#FFFFFF" points="44.652,61.087 53.147,56.3 53.125,53.997 44.63,58.785 				"/>
				<polygon fill="#FFFFFF" points="44.652,65.083 53.147,60.296 53.125,57.994 44.63,62.782 				"/>
				<polygon fill="#FFFFFF" points="44.652,69.08 53.147,64.293 53.125,61.991 44.63,66.779 				"/>
				<polygon fill="#FFFFFF" points="44.652,73.077 53.147,68.29 53.125,65.988 44.63,70.774 				"/>
				<polygon fill="#FFFFFF" points="44.652,77.073 53.147,72.286 53.125,69.983 44.63,74.772 				"/>
				<polygon fill="#FFFFFF" points="53.147,77.048 53.125,73.981 47.405,77.204 				"/>
			</g>
			<polygon fill="#FFFFFF" points="37.747,49.874 34.323,51.382 34.323,73.429 37.747,71.817 			"/>
			<polygon fill="#FFFFFF" points="39.801,74.071 39.801,35.847 43.11,34.32 43.11,77.204 40.486,77.204 39.801,77.204 
				23.596,77.204 			"/>
		</g>
	</g>
	<g>
		<g>
			<path fill="#FFFFFF" d="M122.031,51.651c0.938,2.066,2.654,2.924,4.078,2.924h0.388v0.462h-10.456v-0.458h0.409
				c1.198,0,2.441-1.056,1.765-2.914l-2.969-7.908h-12.508l-3.112,7.935c-0.655,1.844,0.583,2.89,1.776,2.89h0.408v0.457h-9.345
				v-0.463h0.417c1.412,0,3.13-0.854,4.068-2.919l10.531-24.989c0,0,1.719-3.761,1.719-4.782h0.419L122.031,51.651z M114.721,42.364
				l-5.598-14.905l-5.843,14.905H114.721z"/>
			<path fill="#FFFFFF" d="M180.011,39.746c-1.454,0-2.275,0.734-2.255,2.039v7.452c-2.053,2.73-6.265,5.804-13.029,5.804
				c-9.584-0.045-16.195-6.596-16.195-16.401c0-9.842,6.613-16.401,16.181-16.401c4.958,0,8.277,1.337,10.926,3.043l0.907,6.363
				h-0.375c-1.369-5.155-5.493-8.057-11.44-8.057c-7.642,0-12.818,6.02-12.818,15.052c0,8.994,5.177,15.016,12.818,15.054
				c3.916,0,7.568-1.505,10.166-3.908v-7.982c0-1.316-0.864-2.057-2.318-2.057h-0.711v-0.45h8.828v0.45H180.011L180.011,39.746z"/>
			<g>
				<path fill="#FFFFFF" d="M144.372,55.363c-0.435-0.234-0.847-0.487-1.241-0.753s-0.788-0.535-1.181-0.813
					c-0.531,0.415-1.2,0.744-2.007,0.99c-0.81,0.246-1.742,0.367-2.807,0.367c-1.239,0-2.311-0.186-3.217-0.56
					c-0.904-0.373-1.629-0.851-2.171-1.433c-0.541-0.58-0.905-1.231-1.092-1.948c-0.187-0.718-0.193-1.428-0.015-2.127
					c0.178-0.698,0.542-1.337,1.093-1.92c0.552-0.58,1.288-1.036,2.215-1.372c-0.63-1.16-1.074-2.264-1.329-3.307
					c-0.257-1.043-0.29-1.971-0.104-2.774c0.187-0.81,0.626-1.467,1.313-1.98c0.69-0.512,1.665-0.816,2.924-0.915
					c1.16-0.097,2.143,0.02,2.939,0.354c0.795,0.336,1.412,0.783,1.843,1.344c0.436,0.561,0.681,1.188,0.737,1.874
					c0.061,0.689-0.063,1.354-0.368,1.993c-0.307,0.641-0.78,1.209-1.431,1.713c-0.649,0.503-1.478,0.831-2.481,0.989
					c-0.096-0.038-0.175-0.099-0.234-0.177c-0.058-0.079-0.106-0.159-0.149-0.236c-0.058-0.079-0.105-0.166-0.146-0.266
					c0.55-0.296,0.983-0.658,1.298-1.092c0.315-0.434,0.536-0.886,0.664-1.36c0.128-0.471,0.162-0.944,0.103-1.417
					c-0.056-0.472-0.191-0.894-0.396-1.27c-0.207-0.374-0.487-0.68-0.842-0.914c-0.354-0.236-0.758-0.354-1.212-0.354
					c-0.786,0-1.344,0.241-1.667,0.723c-0.326,0.483-0.468,1.123-0.428,1.921c0.038,0.796,0.244,1.691,0.62,2.686
					c0.371,0.995,0.869,2.008,1.491,3.042c0.62,1.032,1.342,2.034,2.17,2.996c0.824,0.965,1.712,1.802,2.655,2.51
					c0.354-0.531,0.462-1.088,0.325-1.668c-0.135-0.58-0.363-1.108-0.681-1.579c-0.314-0.474-0.795-1.005-1.445-1.595
					c0.04-0.119,0.091-0.237,0.148-0.354c0.1-0.216,0.247-0.413,0.444-0.59c1.143,0.099,1.988,0.414,2.536,0.944
					c0.555,0.529,0.889,1.146,1.007,1.847c0.118,0.698,0.063,1.409-0.163,2.142c-0.225,0.726-0.555,1.326-0.989,1.799
					c0.217,0.137,0.443,0.264,0.681,0.383c0.215,0.118,0.452,0.241,0.709,0.368c0.254,0.131,0.52,0.262,0.795,0.399L144.372,55.363z
					 M137.669,53.829c0.671,0,1.237-0.079,1.698-0.236c0.462-0.154,0.861-0.394,1.193-0.708c-0.688-0.49-1.303-0.959-1.843-1.4
					c-0.544-0.444-1.05-0.901-1.521-1.373c-0.474-0.472-0.92-0.982-1.344-1.536c-0.422-0.551-0.859-1.182-1.313-1.89
					c-0.766,0.67-1.202,1.417-1.301,2.244c-0.097,0.827,0.034,1.604,0.399,2.334c0.364,0.727,0.909,1.337,1.639,1.828
					C136.007,53.584,136.804,53.829,137.669,53.829z"/>
			</g>
		</g>
		<rect x="92.461" y="62.255" fill="#04A8DD" width="88.335" height="0.7"/>
		<g>
			<path fill="#FFFFFF" d="M98.613,74.642c-0.205,0.59-0.5,1.076-0.886,1.461c-0.947,0.15-1.554,0.227-1.824,0.227
				c-0.902,0-1.668-0.282-2.295-0.854c-0.646-0.584-0.97-1.326-0.97-2.222c0-0.99,0.321-1.829,0.961-2.521
				c0.658-0.703,1.48-1.056,2.469-1.056c0.645,0,1.226,0.116,1.738,0.355c0.164,0.075,0.27,0.11,0.316,0.11
				c0.062,0,0.109-0.023,0.14-0.07l0.144,0.012l0.064,1.399h-0.172c-0.131-0.495-0.411-0.884-0.835-1.169
				c-0.401-0.272-0.866-0.408-1.396-0.408c-0.78,0-1.411,0.321-1.894,0.955c-0.438,0.581-0.657,1.274-0.657,2.08
				c0,0.836,0.235,1.561,0.709,2.17c0.514,0.66,1.178,0.993,1.995,0.993c0.455,0,0.894-0.149,1.317-0.444
				c0.414-0.293,0.709-0.65,0.886-1.078L98.613,74.642z"/>
			<path fill="#FFFFFF" d="M107.557,72.782c0,1.02-0.308,1.863-0.924,2.531c-0.635,0.687-1.455,1.031-2.465,1.031
				c-0.988,0-1.799-0.278-2.429-0.831c-0.667-0.582-0.999-1.359-0.999-2.332c0-1.017,0.305-1.859,0.915-2.528
				c0.633-0.688,1.452-1.031,2.458-1.031c0.99,0,1.803,0.277,2.44,0.831C107.221,71.033,107.557,71.812,107.557,72.782z
				 M106.619,73.128c0-0.837-0.211-1.563-0.633-2.183c-0.479-0.707-1.118-1.06-1.916-1.06c-0.799,0-1.404,0.313-1.818,0.939
				c-0.353,0.534-0.529,1.225-0.529,2.064c0,0.827,0.207,1.547,0.617,2.15c0.471,0.686,1.102,1.03,1.895,1.03
				c0.803,0,1.414-0.299,1.836-0.896C106.436,74.651,106.619,73.969,106.619,73.128z"/>
			<path fill="#FFFFFF" d="M117.107,69.934c-0.338,0.038-0.521,0.065-0.552,0.078c-0.165,0.064-0.247,0.216-0.247,0.456v5.816
				h-0.204l-4.981-5.585v4.807c0,0.399,0.264,0.604,0.793,0.604c0.071,0,0.142-0.006,0.21-0.015v0.189h-2.093l-0.056-0.189
				c0.511,0,0.766-0.129,0.766-0.386v-5.273c0-0.156-0.092-0.282-0.277-0.382c-0.144-0.079-0.305-0.126-0.488-0.149l0.028-0.201
				h1.475l4.42,5.178v-4.415c0-0.19-0.095-0.334-0.285-0.43c-0.154-0.077-0.337-0.112-0.541-0.105v-0.228h2.034l0.013,0.058
				C117.12,69.813,117.113,69.871,117.107,69.934z"/>
			<path fill="#FFFFFF" d="M123.561,74.708c0,0.541-0.188,0.955-0.561,1.25c-0.34,0.27-0.79,0.404-1.343,0.404
				c-0.167,0-0.418-0.03-0.75-0.093c-0.331-0.063-0.582-0.093-0.753-0.093c-0.081,0-0.15,0.029-0.21,0.09h-0.148l-0.266-1.627
				l0.178-0.061c0.117,0.47,0.339,0.842,0.674,1.122c0.338,0.277,0.743,0.417,1.22,0.417c0.364,0,0.664-0.12,0.898-0.362
				c0.231-0.241,0.351-0.546,0.351-0.915c0-0.367-0.285-0.756-0.856-1.162c-0.522-0.369-1.051-0.737-1.581-1.105
				c-0.568-0.479-0.853-0.991-0.853-1.529c0-0.453,0.232-0.811,0.701-1.077c0.391-0.223,0.829-0.337,1.317-0.337
				c0.122,0,0.293,0.032,0.52,0.093c0.224,0.057,0.391,0.088,0.502,0.088c0.097,0,0.17-0.039,0.222-0.123H123l0.297,1.96h-0.209
				c-0.146-0.579-0.328-0.991-0.547-1.242c-0.284-0.32-0.696-0.481-1.229-0.481c-0.297,0-0.533,0.094-0.713,0.279
				c-0.177,0.186-0.265,0.429-0.265,0.729c0,0.37,0.278,0.754,0.839,1.141c0.517,0.357,1.035,0.713,1.554,1.068
				C123.283,73.617,123.561,74.141,123.561,74.708z"/>
			<path fill="#FFFFFF" d="M131.682,71.24l-0.206,0.03c-0.067-0.371-0.119-0.619-0.161-0.742c-0.111-0.338-0.262-0.508-0.45-0.508
				h-1.771v5.391c0,0.276,0.101,0.46,0.305,0.552c0.133,0.058,0.355,0.085,0.658,0.081v0.24h-2.801v-0.181
				c0.66,0.007,0.992-0.225,0.992-0.692v-5.391h-1.75c-0.3,0-0.503,0.427-0.607,1.28h-0.149l0.149-1.802h0.085
				c0.123,0.139,0.273,0.206,0.449,0.206h4.438c0.181,0,0.354-0.067,0.524-0.206h0.061L131.682,71.24z"/>
			<path fill="#FFFFFF" d="M139.952,76.267L139.9,76.27c-0.294,0.008-0.631-0.092-1.01-0.293c-0.379-0.205-0.645-0.43-0.796-0.679
				l-1.091-1.799c-0.151,0.026-0.299,0.038-0.442,0.038c-0.213,0-0.495-0.047-0.846-0.14v1.924c0,0.283,0.109,0.494,0.329,0.642
				c0.188,0.126,0.432,0.181,0.724,0.166l0.031,0.131l-0.005,0.047h-2.819l0.027-0.207h0.053c0.314,0.005,0.535-0.056,0.661-0.183
				c0.124-0.125,0.187-0.346,0.187-0.66v-4.775c0-0.412-0.3-0.616-0.9-0.61V69.7c0.43-0.061,1.063-0.091,1.897-0.091
				c0.928,0,1.611,0.091,2.054,0.267c0.704,0.276,1.056,0.808,1.056,1.591c0,0.393-0.122,0.753-0.366,1.076
				c-0.223,0.299-0.522,0.538-0.894,0.718l1.404,2.181c0.252,0.391,0.509,0.585,0.764,0.587L139.952,76.267z M138.035,71.469
				c0-0.447-0.137-0.827-0.406-1.143c-0.288-0.327-0.653-0.489-1.095-0.489c-0.104,0-0.24,0.011-0.406,0.034
				c-0.214,0.029-0.351,0.045-0.409,0.051v3.224c0.21,0.06,0.521,0.091,0.936,0.091c0.486,0,0.849-0.181,1.086-0.542
				C137.938,72.391,138.035,71.981,138.035,71.469z"/>
			<path fill="#FFFFFF" d="M148.798,69.715l-0.006,0.235l-0.009,0.011c-0.34,0.052-0.544,0.096-0.608,0.13
				c-0.157,0.083-0.237,0.262-0.237,0.537v3.671c0,0.649-0.283,1.167-0.85,1.553c-0.5,0.34-1.089,0.514-1.771,0.514
				c-0.766,0-1.403-0.219-1.906-0.656c-0.531-0.457-0.797-1.062-0.797-1.817v-3.492c0-0.323-0.252-0.478-0.759-0.463l0.062-0.229
				h2.268l-0.027,0.229c-0.545,0.048-0.817,0.222-0.817,0.523v3.609c0,0.461,0.263,0.891,0.787,1.285
				c0.489,0.363,0.975,0.546,1.453,0.546c0.525,0,0.971-0.149,1.337-0.446c0.39-0.318,0.585-0.733,0.585-1.242v-3.404
				c0-0.593-0.265-0.884-0.783-0.874l-0.063-0.229L148.798,69.715z"/>
			<path fill="#FFFFFF" d="M156.825,74.642c-0.205,0.59-0.499,1.076-0.884,1.461c-0.945,0.15-1.555,0.227-1.824,0.227
				c-0.901,0-1.671-0.282-2.296-0.854c-0.646-0.584-0.969-1.326-0.969-2.222c0-0.99,0.32-1.829,0.96-2.521
				c0.657-0.703,1.483-1.056,2.47-1.056c0.644,0,1.226,0.116,1.737,0.355c0.163,0.075,0.271,0.11,0.316,0.11
				c0.061,0,0.108-0.023,0.141-0.07l0.143,0.012l0.063,1.399h-0.168c-0.136-0.495-0.412-0.884-0.836-1.169
				c-0.403-0.272-0.868-0.408-1.396-0.408c-0.777,0-1.409,0.321-1.894,0.955c-0.439,0.581-0.656,1.274-0.656,2.08
				c0,0.836,0.234,1.561,0.709,2.17c0.513,0.66,1.179,0.993,1.993,0.993c0.455,0,0.893-0.149,1.317-0.444
				c0.413-0.293,0.71-0.65,0.885-1.078L156.825,74.642z M154.677,77.332c0,0.247-0.136,0.446-0.412,0.592
				c-0.231,0.129-0.482,0.191-0.756,0.191c-0.261,0-0.479-0.046-0.66-0.14v-0.135c0.155,0.046,0.348,0.071,0.579,0.071
				c0.163,0,0.315-0.043,0.457-0.131c0.165-0.103,0.251-0.229,0.251-0.385c0-0.238-0.153-0.357-0.459-0.357
				c-0.113,0-0.222,0.013-0.321,0.042l0.576-0.9h0.256l-0.271,0.469c0.199,0.024,0.371,0.092,0.518,0.202
				C154.596,76.983,154.677,77.145,154.677,77.332z"/>
			<path fill="#FFFFFF" d="M165.964,72.782c0,1.02-0.31,1.863-0.925,2.531c-0.636,0.687-1.455,1.031-2.464,1.031
				c-0.988,0-1.799-0.278-2.431-0.831c-0.664-0.582-0.996-1.359-0.996-2.332c0-1.017,0.304-1.859,0.912-2.528
				c0.631-0.688,1.451-1.031,2.46-1.031c0.989,0,1.801,0.277,2.439,0.831C165.629,71.033,165.964,71.812,165.964,72.782z
				 M165.024,73.128c0-0.837-0.208-1.563-0.632-2.183c-0.477-0.707-1.118-1.06-1.916-1.06c-0.797,0-1.403,0.313-1.816,0.939
				c-0.354,0.534-0.528,1.225-0.528,2.064c0,0.827,0.206,1.547,0.614,2.15c0.472,0.686,1.104,1.03,1.895,1.03
				c0.806,0,1.416-0.299,1.837-0.896C164.843,74.651,165.024,73.969,165.024,73.128z M163.88,68.169
				c-0.117,0.676-0.366,1.012-0.743,1.012c-0.273,0-0.543-0.104-0.813-0.32c-0.269-0.214-0.464-0.321-0.588-0.321
				c-0.271,0-0.437,0.206-0.495,0.618l-0.198-0.102c0.117-0.676,0.366-1.011,0.749-1.011c0.271,0,0.541,0.105,0.809,0.319
				c0.269,0.215,0.467,0.32,0.592,0.32c0.266,0,0.432-0.206,0.498-0.616L163.88,68.169z"/>
			<path fill="#FFFFFF" d="M173.889,74.72l-0.187,1.563h-5.224v-0.171c0.741-0.01,1.111-0.217,1.111-0.631v-5.002
				c0-0.243-0.064-0.403-0.189-0.485c-0.139-0.093-0.406-0.136-0.81-0.136v-0.161h4.905l0.05,1.424h-0.171
				c-0.074-0.713-0.305-1.074-0.691-1.074h-2.256v2.619h1.797c0.288,0,0.474-0.271,0.557-0.813h0.153v2.004h-0.153
				c-0.102-0.581-0.287-0.868-0.557-0.868h-1.797v2.408c0,0.345,0.133,0.515,0.396,0.515h1.962c0.464,0,0.77-0.398,0.917-1.205
				L173.889,74.72z"/>
			<path fill="#FFFFFF" d="M180.734,74.708c0,0.541-0.189,0.955-0.563,1.25c-0.337,0.27-0.786,0.404-1.34,0.404
				c-0.166,0-0.418-0.03-0.75-0.093c-0.333-0.063-0.582-0.093-0.754-0.093c-0.079,0-0.149,0.029-0.21,0.09h-0.147l-0.266-1.627
				l0.175-0.061c0.114,0.47,0.34,0.842,0.678,1.122c0.335,0.28,0.739,0.417,1.217,0.417c0.366,0,0.663-0.12,0.896-0.362
				c0.231-0.241,0.351-0.546,0.351-0.915c0-0.367-0.285-0.756-0.854-1.162c-0.525-0.369-1.053-0.737-1.581-1.105
				c-0.569-0.479-0.854-0.991-0.854-1.529c0-0.453,0.234-0.811,0.703-1.077c0.388-0.223,0.825-0.337,1.314-0.337
				c0.122,0,0.293,0.032,0.517,0.093c0.224,0.057,0.394,0.088,0.503,0.088c0.097,0,0.172-0.039,0.226-0.123h0.175l0.298,1.96h-0.212
				c-0.144-0.579-0.326-0.991-0.547-1.242c-0.284-0.32-0.694-0.481-1.228-0.481c-0.298,0-0.535,0.094-0.713,0.279
				c-0.177,0.186-0.268,0.429-0.268,0.729c0,0.37,0.28,0.754,0.84,1.141c0.518,0.357,1.035,0.713,1.555,1.068
				C180.455,73.617,180.734,74.141,180.734,74.708z"/>
		</g>
	</g>
</g>
</svg>
