<?xml version="1.0" encoding="utf-8"?>
<!-- Generator: Adobe Illustrator 16.0.0, SVG Export Plug-In . SVG Version: 6.00 Build 0)  -->
<!DOCTYPE svg PUBLIC "-//W3C//DTD SVG 1.1//EN" "http://www.w3.org/Graphics/SVG/1.1/DTD/svg11.dtd">
<svg version="1.1" id="Layer_1" xmlns="http://www.w3.org/2000/svg" xmlns:xlink="http://www.w3.org/1999/xlink" x="0px" y="0px"
	 width="200px" height="100px" viewBox="0 0 200 100" enable-background="new 0 0 200 100" xml:space="preserve">
<g>
	<g>
		<path fill="#FFFFFF" d="M100.02,0.123c-11.623,0.004-21.803,6.31-27.249,15.686C84.394,15.805,94.572,9.499,100.02,0.123z"/>
		<path fill="#F4F2F1" d="M72.771,15.81c-2.695,4.639-4.239,10.029-4.239,15.781c0,5.749,1.542,11.138,4.235,15.775
			c0.006,0,0.012,0,0.019,0c2.688-4.636,4.229-10.021,4.229-15.767C77.015,25.845,75.469,20.45,72.771,15.81z"/>
		<path fill="#ECE8E7" d="M72.767,47.366c5.446,9.382,15.602,15.692,27.23,15.693C94.551,53.677,84.396,47.367,72.767,47.366z"/>
		<path fill="#FFFFFF" d="M127.262,47.316C115.623,47.321,105.439,53.66,100,63.06C111.639,63.055,121.823,56.715,127.262,47.316z"
			/>
		<path fill="#FFFFFF" d="M127.268,15.875c-11.64,0.005-21.826,6.317-27.266,15.716C111.641,31.586,121.828,25.273,127.268,15.875z"
			/>
		<path fill="#FFFFFF" d="M100.002,31.591c-11.64,0.005-21.796,6.377-27.235,15.775C84.405,47.361,94.563,40.989,100.002,31.591z"/>
		<path fill="#F4F2F1" d="M127.268,15.875c-2.675,4.626-4.206,9.996-4.206,15.725c0,5.725,1.529,11.092,4.2,15.717
			c2.675-4.627,4.207-9.997,4.207-15.726C131.469,25.867,129.938,20.5,127.268,15.875z"/>
		<path fill="#F4F2F1" d="M100.02,0.123c-2.676,4.627-4.221,10.023-4.221,15.751c0,5.726,1.53,11.093,4.2,15.717
			c2.675-4.626,4.206-9.997,4.206-15.726C104.205,10.141,102.69,4.748,100.02,0.123z"/>
		<path fill="#F4F2F1" d="M100.001,31.591c-2.674,4.627-4.205,9.997-4.205,15.725c0,5.725,1.533,11.118,4.204,15.744
			c2.674-4.628,4.202-10.025,4.202-15.753C104.202,41.582,102.674,36.215,100.001,31.591z"/>
		<path fill="#FFFFFF" d="M100.02,0.123c5.436,9.407,15.601,15.738,27.244,15.746C121.827,6.462,111.663,0.13,100.02,0.123z"/>
		<path fill="#ECE8E7" d="M100.02,0.123c5.436,9.407,15.601,15.738,27.244,15.746C121.827,6.462,111.663,0.13,100.02,0.123z"/>
		<path fill="#ECE8E7" d="M99.999,31.591c5.437,9.407,15.619,15.719,27.263,15.726C121.826,37.909,111.644,31.598,99.999,31.591z"/>
		<path fill="#ECE8E7" d="M72.771,15.81c5.437,9.406,15.588,15.774,27.231,15.781C94.565,22.185,84.415,15.816,72.771,15.81z"/>
	</g>
	<g>
		<path fill="#FFFFFF" d="M68.975,79.589c-1.668-1.027-3.633-1.621-5.736-1.621c-6.05,0-10.955,4.904-10.955,10.955
			c0,6.049,4.905,10.954,10.955,10.954c2.104,0,4.068-0.594,5.736-1.621v1.455h5.219V77.968h-5.219V79.589z M63.238,95.167
			c-3.448,0-6.244-2.796-6.244-6.244c0-3.449,2.796-6.245,6.244-6.245s6.245,2.796,6.245,6.245
			C69.483,92.371,66.687,95.167,63.238,95.167z"/>
		<path fill="#FFFFFF" d="M122.954,79.589c-1.669-1.027-3.634-1.621-5.737-1.621c-6.051,0-10.954,4.904-10.954,10.955
			c0,6.049,4.903,10.954,10.954,10.954c2.104,0,4.068-0.594,5.737-1.621v1.455h5.219V77.968h-5.219V79.589z M117.217,95.167
			c-3.449,0-6.244-2.796-6.244-6.244c0-3.449,2.795-6.245,6.244-6.245c3.448,0,6.245,2.796,6.245,6.245
			C123.462,92.371,120.665,95.167,117.217,95.167z"/>
		<rect x="142.498" y="77.968" fill="#FFFFFF" width="5.219" height="21.743"/>
		<path fill="#FFFFFF" d="M96.726,77.968c-1.96,0-3.758,0.706-5.161,1.88c-0.011,0.009-0.432,0.455-0.443,0.464
			c-1.181-1.273-2.763-2.344-4.711-2.344c-1.888,0-3.621,0.674-4.99,1.797v-1.797h-5.219v21.743h5.219v-3.253v-3.813v-6.492h0.003
			c0-0.017-0.003-0.034-0.003-0.053c0-1.778,1.436-3.22,3.205-3.22c1.771,0,3.205,1.441,3.205,3.22c0,0.019-0.002,0.036-0.002,0.053
			h0.002v10.306h-0.017v3.253h5.251V96.64v-3.085v-7.358h0.002c0-0.018-0.002-0.036-0.002-0.053c0-1.803,1.453-3.264,3.248-3.264
			c1.793,0,3.247,1.461,3.247,3.264c0,0.017-0.002,0.035-0.002,0.053h0.002v7.729v2.715v3.071h5.285V86.204
			C104.845,81.655,101.21,77.968,96.726,77.968z"/>
		<path fill="#FFFFFF" d="M135.128,77.968h-5.218v21.743h5.212V88.923l0.006-1.401c0-3.277,2.525-4.559,5.736-4.817v-4.736
			c-2.104,0-4.067,0.594-5.736,1.621V77.968z"/>
		<circle fill="#FFFFFF" cx="145.107" cy="73.564" r="2.609"/>
	</g>
</g>
<g>
</g>
<g>
</g>
<g>
</g>
<g>
</g>
<g>
</g>
<g>
</g>
<g>
</g>
<g>
</g>
<g>
</g>
<g>
</g>
<g>
</g>
<g>
</g>
<g>
</g>
<g>
</g>
<g>
</g>
</svg>
