<?xml version="1.0" encoding="utf-8"?>
<!-- Generator: Adobe Illustrator 16.0.0, SVG Export Plug-In . SVG Version: 6.00 Build 0)  -->
<!DOCTYPE svg PUBLIC "-//W3C//DTD SVG 1.1//EN" "http://www.w3.org/Graphics/SVG/1.1/DTD/svg11.dtd">
<svg version="1.1" id="Layer_1" xmlns="http://www.w3.org/2000/svg" xmlns:xlink="http://www.w3.org/1999/xlink" x="0px" y="0px"
	 width="200px" height="100px" viewBox="0 0 200 100" enable-background="new 0 0 200 100" xml:space="preserve">
<g>
	<g>
		<g>
			<g>
				<linearGradient id="SVGID_1_" gradientUnits="userSpaceOnUse" x1="59.6582" y1="45.3716" x2="127.9362" y2="-3.1818">
					<stop  offset="0" style="stop-color:#4FC6E7"/>
					<stop  offset="0.2804" style="stop-color:#51C6E3"/>
					<stop  offset="0.5664" style="stop-color:#57C6D7"/>
					<stop  offset="0.854" style="stop-color:#61C5C2"/>
					<stop  offset="1" style="stop-color:#68C5B5"/>
				</linearGradient>
				<polygon fill="url(#SVGID_1_)" points="128.52,0.322 55.915,39.405 80.184,39.405 				"/>
				<polygon fill="#3DA3BA" points="128.52,0.322 80.184,39.405 98.09,62.844 101.912,41.718 				"/>
				<linearGradient id="SVGID_2_" gradientUnits="userSpaceOnUse" x1="116.2725" y1="51.5508" x2="126.2812" y2="-3.4972">
					<stop  offset="0" style="stop-color:#4FC6E7"/>
					<stop  offset="0.2804" style="stop-color:#51C6E3"/>
					<stop  offset="0.5664" style="stop-color:#57C6D7"/>
					<stop  offset="0.854" style="stop-color:#61C5C2"/>
					<stop  offset="1" style="stop-color:#68C5B5"/>
				</linearGradient>
				<polygon fill="url(#SVGID_2_)" points="134.209,41.718 101.912,41.718 128.52,0.322 				"/>
				<polygon fill="#1E6672" points="98.09,62.844 110.39,41.718 101.912,41.718 				"/>
			</g>
			<g>
				<polygon fill="#00B6E0" points="134.209,41.718 124.6,29.17 114.216,41.718 				"/>
				<polygon fill="#00ADD8" points="109.979,29.17 124.6,29.17 114.216,41.718 				"/>
				<polygon fill="#00A6D2" points="101.912,41.718 114.216,41.718 109.979,29.17 				"/>
				<polygon fill="#00A6D2" points="124.6,29.17 132.485,29.17 134.209,41.718 				"/>
				<polygon fill="#05BBC0" points="109.979,29.17 117.491,17.481 124.6,29.17 				"/>
				<polygon fill="#00B3B9" points="124.6,29.17 130.879,17.481 117.491,17.481 				"/>
				<polygon fill="#0CADB9" points="124.6,29.17 130.879,17.481 132.485,29.17 				"/>
				<polygon fill="#04B8A4" points="130.879,17.481 124.185,7.067 117.491,17.481 				"/>
				<polygon fill="#44BA92" points="129.446,7.067 130.879,17.481 124.185,7.067 				"/>
				<polygon fill="#68BF80" points="128.52,0.322 129.446,7.067 124.185,7.067 				"/>
				<polygon fill="#00ADD8" points="68.363,39.405 92.843,29.17 84.127,28.472 				"/>
				<polygon fill="#00B6E0" points="55.915,39.405 84.127,28.472 68.363,39.405 				"/>
				<polygon fill="#00A6D2" points="84.127,28.472 77.326,27.881 55.915,39.405 				"/>
				<polygon fill="#00A6D2" points="80.184,39.405 92.843,29.17 68.363,39.405 				"/>
				<polygon fill="#05BBC0" points="107.23,17.421 92.843,29.17 84.127,28.472 				"/>
				<polygon fill="#0BABAE" points="77.326,27.881 84.127,28.472 98.505,16.479 				"/>
				<polygon fill="#00B3B9" points="107.23,17.421 98.505,16.479 84.127,28.472 				"/>
				<polygon fill="#04B8A4" points="120.178,7.067 98.505,16.479 107.23,17.421 				"/>
				<polygon fill="#44BA92" points="117.288,6.369 120.178,7.067 98.505,16.479 				"/>
				<polygon fill="#68BF80" points="128.52,0.322 117.288,6.369 120.178,7.067 				"/>
				<polygon fill="#1896AA" points="92.843,29.17 87.749,49.308 80.184,39.405 				"/>
				<polygon fill="#0198BB" points="101.912,41.718 101.005,46.735 87.749,49.308 92.843,29.17 				"/>
				<polygon fill="#038B98" points="98.09,62.844 101.005,46.735 87.749,49.308 				"/>
				<polygon fill="#00A4A4" points="107.23,17.421 112.941,24.56 92.843,29.17 				"/>
				<polygon fill="#0B9998" points="101.912,41.718 112.941,24.56 92.843,29.17 				"/>
				<polygon fill="#3BA07D" points="120.178,7.067 112.941,24.56 107.23,17.421 				"/>
				<polygon fill="#35936D" points="112.941,24.56 122.447,9.771 120.178,7.067 				"/>
				<polygon fill="#509861" points="128.52,0.322 120.178,7.067 122.447,9.771 				"/>
				<polygon fill="#094C4A" points="101.912,41.718 99.921,52.725 107.23,41.718 				"/>
				<polygon fill="#094C4A" points="108.315,44.651 99.921,52.725 98.09,62.844 				"/>
				<polygon fill="#104241" points="109.341,41.718 108.315,44.651 99.921,52.725 107.23,41.718 				"/>
				<polygon fill="#104241" points="98.09,62.844 107.752,46.247 108.315,44.651 				"/>
				<polygon fill="#154F4C" points="110.39,41.718 109.341,41.718 107.752,46.247 				"/>
			</g>
			<polygon opacity="0.4" fill="#1E6672" points="128.52,0.322 85.41,46.247 98.09,62.844 101.912,41.718 			"/>
		</g>
		<g>
			<path fill="#00A6D2" d="M42.718,99.272l2.649-13.948h-2.318l0.735-4.048h2.356l0.146-0.92c0.404-2.173,1.252-4.417,3.055-5.926
				c1.473-1.214,3.386-1.693,5.152-1.693c1.251,0,2.208,0.185,2.798,0.442l-0.921,4.195c-0.479-0.184-1.03-0.296-1.692-0.296
				c-1.73,0-2.797,1.51-3.129,3.314l-0.146,0.883h3.533l-0.772,4.048h-3.497l-2.65,13.948H42.718z"/>
			<path fill="#00A6D2" d="M73.814,81.276l-2.282,12.146c-0.441,2.28-0.735,4.231-0.993,5.851h-4.674l0.331-2.906l-0.073-0.038
				c-1.841,2.355-4.013,3.35-6.184,3.35c-2.907,0-4.638-1.619-4.638-5.042c0-0.957,0.11-2.062,0.369-3.313l1.913-10.046h5.3
				l-1.84,9.642c-0.147,0.811-0.259,1.729-0.259,2.393c0,1.141,0.479,2.062,1.804,2.062c1.804,0,3.681-2.173,4.343-5.742
				l1.583-8.354H73.814z"/>
			<path fill="#00A6D2" d="M73.41,99.272l5.005-26.13h5.3l-5.006,26.13H73.41z"/>
			<path fill="#00A6D2" d="M81.689,99.272l5.005-26.13h5.301l-5.006,26.13H81.689z"/>
			<path fill="#00A6D2" d="M90.205,96.219c0.81,0.514,2.356,1.103,3.827,1.103c2.061,0,3.387-1.324,3.387-2.907
				c0-1.397-0.627-2.281-2.503-3.313c-2.062-1.141-3.202-2.687-3.202-4.526c0-3.128,2.687-5.52,6.478-5.52
				c1.582,0,3.018,0.441,3.68,0.882l-0.847,2.32c-0.625-0.369-1.729-0.811-3.054-0.811c-1.878,0-3.203,1.177-3.203,2.686
				c0,1.289,0.847,2.099,2.467,2.981c1.986,1.141,3.313,2.688,3.313,4.711c0,3.754-3.018,5.853-6.809,5.853
				c-1.914-0.037-3.607-0.589-4.417-1.215L90.205,96.219z"/>
			<path fill="#00A6D2" d="M115.12,98.278c-1.326,0.736-3.497,1.399-5.889,1.399c-4.712,0-6.771-3.239-6.771-7.178
				c0-5.373,3.974-11.444,9.716-11.444c3.386,0,5.227,2.023,5.227,4.6c0,4.674-5.263,5.89-11.851,5.777
				c-0.148,0.772-0.038,2.43,0.367,3.387c0.699,1.619,2.135,2.393,3.976,2.393c2.098,0,3.68-0.626,4.784-1.215L115.12,98.278z
				 M114.457,85.692c0-1.435-1.103-2.245-2.723-2.245c-2.908,0-5.08,2.833-5.815,5.63c4.784,0.074,8.538-0.589,8.538-3.349V85.692z"
				/>
			<path fill="#00A6D2" d="M117.512,99.272l4.969-26.13h3.055l-4.969,26.13H117.512z"/>
			<path fill="#00A6D2" d="M123.462,99.272l4.969-26.13h3.055l-4.968,26.13H123.462z"/>
			<path fill="#00A6D2" d="M143.225,98.278c-1.323,0.736-3.495,1.399-5.889,1.399c-4.709,0-6.771-3.239-6.771-7.178
				c0-5.373,3.974-11.444,9.716-11.444c3.385,0,5.226,2.023,5.226,4.6c0,4.674-5.263,5.89-11.85,5.777
				c-0.147,0.772-0.038,2.43,0.366,3.387c0.7,1.619,2.135,2.393,3.976,2.393c2.098,0,3.681-0.626,4.784-1.215L143.225,98.278z
				 M142.563,85.692c0-1.435-1.104-2.245-2.724-2.245c-2.907,0-5.079,2.833-5.816,5.63c4.785,0.074,8.54-0.589,8.54-3.349V85.692z"
				/>
			<path fill="#00A6D2" d="M145.58,99.272l2.171-11.482c0.442-2.318,0.701-4.674,0.883-6.331h2.688
				c-0.11,1.252-0.259,2.467-0.479,3.865h0.111c1.177-2.429,3.054-4.269,5.446-4.269c0.294,0,0.624,0.036,0.882,0.073l-0.588,3.017
				c-0.221-0.035-0.516-0.072-0.845-0.072c-2.615,0-4.969,3.201-5.744,7.324l-1.472,7.875H145.58z"/>
		</g>
	</g>
</g>
<g>
</g>
<g>
</g>
<g>
</g>
<g>
</g>
<g>
</g>
<g>
</g>
<g>
</g>
<g>
</g>
<g>
</g>
<g>
</g>
<g>
</g>
<g>
</g>
<g>
</g>
<g>
</g>
<g>
</g>
</svg>
