<?xml version="1.0" encoding="utf-8"?>
<!-- Generator: Adobe Illustrator 16.0.0, SVG Export Plug-In . SVG Version: 6.00 Build 0)  -->
<!DOCTYPE svg PUBLIC "-//W3C//DTD SVG 1.1//EN" "http://www.w3.org/Graphics/SVG/1.1/DTD/svg11.dtd">
<svg version="1.1" id="Layer_1" xmlns="http://www.w3.org/2000/svg" xmlns:xlink="http://www.w3.org/1999/xlink" x="0px" y="0px"
	 width="200px" height="100px" viewBox="0 0 200 100" enable-background="new 0 0 200 100" xml:space="preserve">
<g>
	<g>
		<g>
			<g>
				<path fill="#EACA62" d="M96.59,78.829c2.432,2.431,3.647,5.349,3.647,8.753c0,3.403-1.215,6.32-3.647,8.737
					c-2.431,2.416-5.349,3.632-8.753,3.632s-6.322-1.216-8.738-3.632c-2.416-2.417-3.632-5.334-3.632-8.737
					c0-3.404,1.216-6.322,3.632-8.753c2.416-2.432,5.334-3.647,8.738-3.647S94.159,76.397,96.59,78.829z M82.594,82.309
					c-1.444,1.459-2.173,3.206-2.173,5.242c0,2.052,0.729,3.799,2.173,5.243c1.443,1.444,3.191,2.173,5.243,2.173
					c2.037,0,3.784-0.729,5.243-2.173c1.459-1.444,2.188-3.191,2.188-5.243c0-2.036-0.729-3.783-2.188-5.242
					c-1.458-1.459-3.206-2.188-5.243-2.188C85.785,80.12,84.038,80.85,82.594,82.309z"/>
				<linearGradient id="SVGID_1_" gradientUnits="userSpaceOnUse" x1="80.6426" y1="87.5664" x2="100.2368" y2="87.5664">
					<stop  offset="0" style="stop-color:#D3B253"/>
					<stop  offset="1" style="stop-color:#FCEC7D"/>
				</linearGradient>
				<path fill="url(#SVGID_1_)" d="M90.401,75.431c-5.042,1.03-8.969,5.12-9.753,10.247c0.317-1.257,0.967-2.379,1.946-3.369
					c1.443-1.459,3.191-2.188,5.243-2.188c2.037,0,3.784,0.729,5.243,2.188c1.459,1.459,2.188,3.206,2.188,5.242
					c0,2.052-0.729,3.799-2.188,5.243c-1.458,1.444-3.206,2.173-5.243,2.173c-2.052,0-3.799-0.729-5.243-2.173
					c-0.984-0.984-1.636-2.11-1.952-3.378c0.771,5.145,4.704,9.254,9.759,10.286c2.328-0.47,4.392-1.597,6.188-3.383
					c2.432-2.417,3.647-5.334,3.647-8.737c0-3.404-1.215-6.322-3.647-8.753C94.793,77.031,92.729,75.901,90.401,75.431z"/>
			</g>
			<g>
				<path fill="#EACA62" d="M138.648,78.829c2.432,2.431,3.648,5.349,3.648,8.753c0,3.403-1.217,6.32-3.648,8.737
					c-2.43,2.416-5.348,3.632-8.752,3.632s-6.32-1.216-8.738-3.632c-2.416-2.417-3.631-5.334-3.631-8.737
					c0-3.404,1.215-6.322,3.631-8.753c2.418-2.432,5.334-3.647,8.738-3.647S136.219,76.397,138.648,78.829z M124.654,82.309
					c-1.443,1.459-2.174,3.206-2.174,5.242c0,2.052,0.73,3.799,2.174,5.243s3.191,2.173,5.242,2.173
					c2.035,0,3.783-0.729,5.242-2.173s2.189-3.191,2.189-5.243c0-2.036-0.73-3.783-2.189-5.242s-3.207-2.188-5.242-2.188
					C127.846,80.12,126.098,80.85,124.654,82.309z"/>
				<linearGradient id="SVGID_2_" gradientUnits="userSpaceOnUse" x1="122.7031" y1="87.5664" x2="142.2969" y2="87.5664">
					<stop  offset="0" style="stop-color:#D3B253"/>
					<stop  offset="1" style="stop-color:#FCEC7D"/>
				</linearGradient>
				<path fill="url(#SVGID_2_)" d="M132.461,75.431c-5.043,1.03-8.969,5.12-9.754,10.247c0.316-1.257,0.967-2.379,1.947-3.369
					c1.443-1.459,3.191-2.188,5.242-2.188c2.035,0,3.783,0.729,5.242,2.188s2.189,3.206,2.189,5.242c0,2.052-0.73,3.799-2.189,5.243
					s-3.207,2.173-5.242,2.173c-2.051,0-3.799-0.729-5.242-2.173c-0.984-0.984-1.637-2.11-1.951-3.378
					c0.77,5.145,4.703,9.254,9.758,10.286c2.328-0.47,4.393-1.597,6.188-3.383c2.432-2.417,3.648-5.334,3.648-8.737
					c0-3.404-1.217-6.322-3.648-8.753C136.854,77.031,134.789,75.901,132.461,75.431z"/>
			</g>
			<g>
				<path fill="#EACA62" d="M106.938,75.304v19.587h9.787V99.8h-14.695V75.304H106.938z"/>
				<linearGradient id="SVGID_3_" gradientUnits="userSpaceOnUse" x1="102.0762" y1="97.3457" x2="116.7246" y2="97.3457">
					<stop  offset="0" style="stop-color:#D3B253"/>
					<stop  offset="1" style="stop-color:#FCEC7D"/>
				</linearGradient>
				<polygon fill="url(#SVGID_3_)" points="116.725,99.8 116.725,94.891 106.938,94.891 102.076,99.8 				"/>
			</g>
			<g>
				<path fill="#EACA62" d="M63.265,75.304l4.225,7.765l4.225-7.765h5.576l-7.354,13.509V99.8h-4.893V88.813l-7.34-13.509H63.265z"
					/>
				<linearGradient id="SVGID_4_" gradientUnits="userSpaceOnUse" x1="67.4897" y1="82.0586" x2="77.291" y2="82.0586">
					<stop  offset="0" style="stop-color:#D3B253"/>
					<stop  offset="1" style="stop-color:#FCEC7D"/>
				</linearGradient>
				<polygon fill="url(#SVGID_4_)" points="71.715,75.304 67.49,83.068 69.937,88.813 77.291,75.304 				"/>
			</g>
		</g>
	</g>
	<linearGradient id="SVGID_5_" gradientUnits="userSpaceOnUse" x1="74.8525" y1="2.1865" x2="124.7538" y2="70.0932">
		<stop  offset="0" style="stop-color:#D3B253"/>
		<stop  offset="0.2551" style="stop-color:#D6B656"/>
		<stop  offset="0.5256" style="stop-color:#DFC35F"/>
		<stop  offset="0.8023" style="stop-color:#EED86F"/>
		<stop  offset="1" style="stop-color:#FCEC7D"/>
	</linearGradient>
	<path fill-rule="evenodd" clip-rule="evenodd" fill="url(#SVGID_5_)" d="M128.949,48.944c-0.111-2.792-2.309-7.402-5.543-8.893
		c1.93-0.45,2.871,0.289,4.43,0.193c-2.203-2.213-6.023-6.49-5.918-6.607c0.834,0.34,1.656,0.719,2.508,1.012
		c0.863,0.298,1.76,0.512,2.775,0.803c-0.938-1.496-1.936-2.688-2.471-4.06c-0.561-1.436-1.041-3.068-1.41-4.587
		c-0.559-2.298-2.893-6.837-4.479-7.695c-0.814-0.472,1.961,0.532,3.053,1.104c-0.346-3.083-4.66-5.048-4.404-8.006
		c1.928,0.193,6.488-1.715,6.473-1.902c-3.428-0.624-6.484-2.121-9.046-4.333c-1.841-1.59-3.671-1.819-5.858-1.382
		c-1.279,0.256-2.594,0.325-3.891,0.478c2.371-2.447,5.48-2.635,8.884-3.204c-0.845-0.401-1.273-0.652-1.733-0.816
		c-4.993-1.785-9.786-1.101-14.323,1.414c-1.763,0.978-3.348,1.216-5.295,0.571c-2.246-0.742-4.608-0.658-6.735-0.126
		c0.774,0.913,1.508,1.777,2.469,2.911c-3.774-0.914-7.183-1.499-9.912,1.86c0.718,0.439,1.333,0.77,1.896,1.173
		c0.579,0.414,1.105,0.899,1.803,1.476c-4.918,0.847-5.836,4.857-3.739,8.336c0.173,0.286,0.21,0.761,0.112,1.087
		c-0.832,2.742-1.748,5.458-2.56,8.205c-0.772,2.611-1.635,5.127-4.365,6.41c0.003,0.136,2.449,0.613,3.883,0.734
		c-4.129,5.167-4.92,6.347-4.327,13.09c1.253-3.929,5.505-6.202,5.446-6.144c-6.09,6.009-4.825,16.22-1.519,19.046
		c-1.508-4.148-1.813-8.216,0.508-12.154c-0.23,3.708-0.711,7.424,1.182,11.227c0.351-3.654,1.333-6.993,4.183-9.767
		c-0.859,2.978-1.609,5.586-2.367,8.193c-1.167,4.019,0.406,7.35,2.598,10.784c0.379-2.03-0.038-9.964,9.516-11.2
		c-1.72,2.166-3.308,4.165-5.038,6.346c7.091-1.569,13.356-4.153,18.3-9.473c-0.93,2.259-1.816,4.518-3.261,6.337
		c-1.414,1.778-3.394,3.11-5.118,4.631c3.229,0.127,6.542,0.393,9.677-0.919c3.186-1.333,4.736-4.303,6.734-7.32
		c-0.402,3.637-1.502,6.515-3.943,8.834c3.121-0.819,5.75-2.286,7.896-4.701c-0.117,1.674-1.813,4.813-1.715,4.91
		c3.338-3.139,3.602-6.436,5.564-8.995c-0.258,1.133-0.453,2.375-0.834,3.557c-0.393,1.21-1.088,3.632-0.898,3.68
		c7.449-6.748,9.742-9.662,7.365-18.813C127.221,46.976,128.059,47.726,128.949,48.944z M115.34,15.719
		c0.992,1.398,1.576,3.363,0.393,4.668C115.842,18.69,115.233,17.371,115.34,15.719z M79.276,15.362
		c0.195-1.673,1.382-2.919,3.2-3.338c-0.686,1.489-1.812,4.641-1.689,4.73c0.69-0.438,1.381-0.875,2.2-1.392
		c-0.489,1.459-0.941,2.808-1.395,4.163C79.992,18.747,79.076,17.082,79.276,15.362z M82.466,26.622
		c0.132,3.598,0.934,6.952,3.231,9.832C81.634,34.288,80.513,29.813,82.466,26.622z M85.768,21.03
		c0.248-1.456,3.322-0.898,5.369,1.225c0.731,0.758,2.153,0.899,2.967,1.206c0.465,0.175,0.658,0.726,0.583,1.583
		c-0.19,1.087-0.603,1.841-1.996,1.945c-1.617,0.542-3.931,0.515-5.38-0.729C85.738,24.91,85.44,22.96,85.768,21.03z M87.93,36.704
		c-0.347-1.226-0.831-4.473-0.857-5.023c-0.152-3.113,6.071-4.025,6.071-4.025c1.307,0.214,0.186,5.499,0.341,6.28
		c0.171,0.037,4.953,3.88,5.873,5.102c0.838,1.113,0.229,2.663-0.902,3.488c-0.888,0.647-3.574,2.197-4.574,2.255
		C91.288,44.931,88.583,39.014,87.93,36.704z M103.537,48.417c-0.701,0.244-1.459,0.374-2.201,0.448
		c-0.747,0.075-2.667,0.01-2.863,0.009c-2.79-0.018-3.238-0.849-3.546-1.859c-0.304-0.995,0.765-2.241,2.598-2.91
		c2.557-0.934,4.877-0.185,6.945,1.341C105.659,46.323,105.154,47.856,103.537,48.417z M113.043,30.333
		c1.73,2.402-1.773,13.068-4.298,14.621c-0.808,0.497-3.634-0.322-4.662-0.9c-1.126-0.633-2.218-0.9-3.029-2.797
		c-0.343-1.166,0.015-2.163,0.778-3.086c0.097-0.117,4.023-3.519,4.76-4.212c-0.854-0.629-1.865-0.646-2.895-0.386
		c-3.763,0.947-6.623,0.16-8.777-0.258c0-1.058,0.633-6.613,0.579-7.974c-0.076-1.889,0.193-2.524-0.654-3.826
		c-0.276-0.424-0.858-0.964-2.418-1.052c-1.012-0.057-2.475-1.343-2.378-2.982c0.081-1.367,2.131-0.247,3.368,0.764
		c0.786,0.643,4.648,2.331,5.598,2.4c-0.2-0.361-1.513-2.546-2.085-3.35c-0.581-0.814-2.485-3.099-2.417-3.188
		c1.353,0.733,4.845,4.781,5.785,6.131c1.189-1.307,2.395-5.831,3.091-8.324c0,0.777,0.118,5.837-1.373,8.088
		c1.369,0.148,3.961-0.806,5.248-1.607c0.857-0.534,2.049-2.805,2.742-2.082c1.264,1.316,0.754,2.995,0.025,3.563
		c-0.118,0.092-0.607,0.436-0.771,0.46c-0.609,0.093-1.629,0.075-2.178,0.477c-0.718,0.526-1.734,1.097-1.02,3.678
		c-0.018-1.497,3.342-1.063,4.58-3.056c0.924-1.488,3.536-1.752,3.713-1.334c1.242,2.529,0.221,8.303-5.922,6.883
		C110.246,27.664,112.078,28.821,113.043,30.333z M115.449,26.163c0.789,2.816,1.602,5.712,2.4,8.559
		C115.609,33.018,114.525,29.115,115.449,26.163z"/>
</g>
<g>
</g>
<g>
</g>
<g>
</g>
<g>
</g>
<g>
</g>
<g>
</g>
<g>
</g>
<g>
</g>
<g>
</g>
<g>
</g>
<g>
</g>
<g>
</g>
<g>
</g>
<g>
</g>
<g>
</g>
</svg>
