<?xml version="1.0" encoding="utf-8"?>
<!-- Generator: Adobe Illustrator 16.0.0, SVG Export Plug-In . SVG Version: 6.00 Build 0)  -->
<!DOCTYPE svg PUBLIC "-//W3C//DTD SVG 1.1//EN" "http://www.w3.org/Graphics/SVG/1.1/DTD/svg11.dtd">
<svg version="1.1" id="Layer_1" xmlns="http://www.w3.org/2000/svg" xmlns:xlink="http://www.w3.org/1999/xlink" x="0px" y="0px"
	 width="200px" height="100px" viewBox="0 0 200 100" enable-background="new 0 0 200 100" xml:space="preserve">
<g>
	<g>
		<linearGradient id="SVGID_1_" gradientUnits="userSpaceOnUse" x1="119.3252" y1="53.3301" x2="82.3258" y2="-2.4936">
			<stop  offset="0" style="stop-color:#DDDFE0"/>
			<stop  offset="0.0535" style="stop-color:#E1E3E4"/>
			<stop  offset="0.3244" style="stop-color:#F2F3F3"/>
			<stop  offset="0.623" style="stop-color:#FCFCFC"/>
			<stop  offset="1" style="stop-color:#FFFFFF"/>
		</linearGradient>
		<path fill="url(#SVGID_1_)" d="M108.629,38.293c-2.121,1.224-4.579,1.927-7.202,1.927c-7.969,0-14.429-6.46-14.429-14.428
			c0-7.97,6.46-14.43,14.429-14.43s14.428,6.459,14.428,14.43c0,3.27-1.088,6.285-2.922,8.705l7.876,8.981
			c3.474-6.035,6.01-12.375,6.003-18.017C126.8,11.415,115.426,0.028,101.379,0.028c-14.046,0-25.433,11.387-25.433,25.434
			c0,17.852,25.433,42.72,25.433,42.72s8.97-8.761,16.256-19.618L108.629,38.293z"/>
		<linearGradient id="SVGID_2_" gradientUnits="userSpaceOnUse" x1="107.9854" y1="70.7529" x2="90.142" y2="4.3099">
			<stop  offset="0" style="stop-color:#FFFFFF"/>
			<stop  offset="0.4318" style="stop-color:#FCFCFC"/>
			<stop  offset="0.7229" style="stop-color:#F3F4F4"/>
			<stop  offset="0.9721" style="stop-color:#E4E5E6"/>
			<stop  offset="1" style="stop-color:#E2E3E4"/>
		</linearGradient>
		<path fill="url(#SVGID_2_)" d="M101.379,68.182c0,0,8.97-8.761,16.256-19.618l-9.006-10.27c-2.121,1.224-4.579,1.927-7.202,1.927
			c-7.969,0-14.429-6.46-14.429-14.428c0-7.97,6.46-14.43,14.429-14.43c7.361,0,13.432,5.514,14.313,12.636
			c-0.799-10.223-9.341-18.271-19.769-18.271c-10.204,0-18.822,7.655-19.927,17.563l0,0c-0.06,0.717-0.098,1.439-0.098,2.17
			C75.946,43.314,101.379,68.182,101.379,68.182z"/>
	</g>
	<g>
		<path fill="#FFFFFF" d="M56.065,83.224c-0.62-0.664-1.359-1.186-2.219-1.565c-0.859-0.379-1.8-0.567-2.82-0.567
			c-0.413,0-0.788,0.06-1.126,0.179c-0.337,0.121-0.647,0.276-0.929,0.468s-0.542,0.403-0.783,0.637
			c-0.24,0.232-0.464,0.461-0.675,0.687v-5.135c0-0.239-0.083-0.443-0.248-0.607c-0.165-0.165-0.391-0.248-0.676-0.248h-2.555
			c-0.098,0-0.198,0.021-0.298,0.062c-0.101,0.043-0.191,0.1-0.271,0.175c-0.079,0.075-0.142,0.165-0.191,0.271
			c-0.049,0.104-0.073,0.221-0.073,0.348v16.821c0,0.578,0.3,0.867,0.9,0.867h2.229c0.143,0,0.255-0.019,0.338-0.056
			c0.083-0.038,0.152-0.093,0.208-0.164c0.057-0.071,0.107-0.161,0.152-0.27c0.045-0.109,0.101-0.235,0.168-0.378l0.316-0.878
			c0.202,0.202,0.428,0.42,0.675,0.653c0.248,0.232,0.519,0.449,0.812,0.652c0.292,0.203,0.607,0.37,0.946,0.502
			c0.337,0.13,0.698,0.196,1.081,0.196c1.02,0,1.96-0.191,2.82-0.573c0.86-0.384,1.599-0.907,2.219-1.57
			c0.619-0.666,1.103-1.447,1.452-2.349c0.348-0.9,0.522-1.869,0.522-2.904c0-1.044-0.174-2.015-0.522-2.91
			C57.167,84.668,56.684,83.888,56.065,83.224z M53.756,89.867c-0.154,0.432-0.373,0.805-0.659,1.119
			c-0.286,0.315-0.627,0.565-1.024,0.749c-0.398,0.185-0.845,0.276-1.34,0.276c-0.48,0-0.931-0.087-1.351-0.259
			c-0.421-0.173-0.789-0.411-1.104-0.715c-0.315-0.305-0.568-0.662-0.759-1.076c-0.191-0.413-0.298-0.855-0.321-1.328v-0.157
			c0-0.481,0.092-0.938,0.276-1.374c0.184-0.436,0.434-0.819,0.749-1.148c0.316-0.33,0.689-0.591,1.121-0.782
			s0.895-0.287,1.391-0.287c0.495,0,0.942,0.096,1.34,0.287c0.396,0.191,0.738,0.452,1.024,0.782
			c0.286,0.329,0.505,0.713,0.659,1.148s0.231,0.893,0.231,1.374C53.987,88.972,53.91,89.436,53.756,89.867z"/>
		<path fill="#FFFFFF" d="M71.619,81.315h-2.545c-0.113,0-0.212,0.011-0.299,0.034c-0.086,0.022-0.179,0.063-0.276,0.123
			c-0.097,0.068-0.17,0.166-0.218,0.293c-0.05,0.128-0.074,0.256-0.074,0.385v7.325c0,0.323-0.079,0.63-0.236,0.919
			c-0.158,0.29-0.359,0.54-0.603,0.755c-0.244,0.214-0.511,0.385-0.799,0.513C66.28,91.79,66,91.854,65.73,91.854
			c-0.315,0-0.625-0.064-0.929-0.192c-0.304-0.128-0.576-0.302-0.816-0.523c-0.241-0.223-0.434-0.478-0.58-0.768
			c-0.146-0.288-0.22-0.595-0.22-0.918v-7.338c0-0.314-0.06-0.526-0.179-0.637c-0.122-0.109-0.343-0.163-0.666-0.163h-2.6
			c-0.271,0-0.467,0.073-0.591,0.22c-0.125,0.146-0.187,0.361-0.187,0.646v7.376c0,0.863,0.136,1.676,0.406,2.438
			c0.271,0.762,0.651,1.428,1.143,1.998s1.087,1.021,1.784,1.351c0.699,0.331,1.475,0.495,2.331,0.495
			c0.593,0,1.119-0.087,1.577-0.264c0.458-0.175,0.853-0.393,1.183-0.65c0.33-0.259,0.602-0.535,0.816-0.831s0.377-0.56,0.49-0.791
			l0.349,1.437c0.03,0.112,0.068,0.222,0.112,0.325c0.044,0.106,0.102,0.199,0.169,0.281s0.149,0.147,0.248,0.196
			c0.098,0.05,0.214,0.073,0.349,0.073h1.701c0.097,0,0.2-0.011,0.309-0.034c0.109-0.021,0.213-0.074,0.311-0.156l-0.067,0.032
			c0.112-0.067,0.201-0.161,0.265-0.28c0.063-0.12,0.095-0.252,0.095-0.395V82.182c0-0.263-0.071-0.472-0.213-0.63
			C72.174,81.394,71.942,81.315,71.619,81.315z"/>
		<path fill="#FFFFFF" d="M82.906,87.986c-0.413-0.372-0.9-0.685-1.463-0.94c-0.563-0.255-1.182-0.491-1.857-0.709
			c-0.181-0.054-0.377-0.1-0.591-0.141s-0.417-0.096-0.609-0.163c-0.191-0.067-0.352-0.156-0.482-0.265
			c-0.132-0.109-0.206-0.261-0.22-0.457c-0.016-0.262,0.085-0.457,0.303-0.586c0.219-0.127,0.511-0.19,0.878-0.19
			c0.292,0,0.608,0.051,0.945,0.152c0.338,0.102,0.638,0.298,0.902,0.59c0.06,0.075,0.127,0.141,0.203,0.192
			c0.075,0.053,0.153,0.09,0.236,0.113c0.082,0.021,0.169,0.023,0.259,0.006c0.09-0.02,0.18-0.066,0.271-0.141
			c0.285-0.286,0.561-0.545,0.827-0.777c0.266-0.233,0.546-0.47,0.839-0.71c0.173-0.149,0.257-0.29,0.253-0.422
			s-0.069-0.271-0.197-0.423c-0.354-0.367-0.708-0.685-1.064-0.951c-0.356-0.267-0.722-0.484-1.098-0.653
			c-0.375-0.168-0.769-0.293-1.182-0.371c-0.413-0.079-0.855-0.118-1.329-0.118c-0.78,0-1.49,0.101-2.127,0.299
			c-0.639,0.198-1.187,0.479-1.644,0.844c-0.458,0.364-0.811,0.802-1.058,1.312c-0.249,0.51-0.373,1.077-0.373,1.7
			c0,0.533,0.068,1.039,0.203,1.521c0.135,0.48,0.373,0.929,0.715,1.345c0.341,0.417,0.805,0.795,1.391,1.132
			c0.585,0.338,1.328,0.627,2.229,0.867c0.285,0.09,0.542,0.169,0.771,0.237c0.229,0.067,0.422,0.144,0.58,0.229
			c0.158,0.088,0.278,0.191,0.36,0.315c0.083,0.124,0.124,0.292,0.124,0.502c0,0.232-0.073,0.412-0.219,0.54
			c-0.147,0.128-0.321,0.219-0.524,0.275c-0.202,0.057-0.414,0.091-0.636,0.102c-0.222,0.012-0.404,0.017-0.545,0.017
			c-0.061,0-0.174-0.019-0.338-0.055c-0.166-0.039-0.356-0.101-0.574-0.188c-0.217-0.085-0.446-0.198-0.681-0.337
			c-0.236-0.14-0.456-0.311-0.658-0.513c-0.218-0.21-0.396-0.337-0.535-0.383c-0.139-0.045-0.298,0.008-0.479,0.157l-1.451,1.452
			c-0.091,0.068-0.156,0.149-0.198,0.242c-0.042,0.095-0.063,0.198-0.068,0.31c-0.003,0.114,0.016,0.228,0.057,0.344
			c0.042,0.117,0.104,0.228,0.187,0.333c0.315,0.412,0.675,0.764,1.08,1.052c0.405,0.29,0.833,0.525,1.284,0.71
			c0.45,0.184,0.917,0.317,1.396,0.399c0.48,0.083,0.953,0.125,1.418,0.125c0.819,0,1.583-0.105,2.291-0.316
			c0.709-0.21,1.324-0.515,1.842-0.912c0.518-0.396,0.924-0.889,1.222-1.475c0.296-0.586,0.444-1.251,0.444-1.993
			s-0.114-1.374-0.342-1.891C83.64,88.803,83.319,88.357,82.906,87.986z"/>
		<path fill="#FFFFFF" d="M99.177,81.451c-0.098-0.083-0.199-0.136-0.304-0.158c-0.104-0.023-0.206-0.034-0.304-0.034h-1.711
			c-0.271,0-0.461,0.083-0.575,0.248c-0.112,0.165-0.198,0.367-0.258,0.607l-0.485,1.362c-0.21-0.271-0.448-0.546-0.714-0.827
			c-0.267-0.282-0.563-0.536-0.89-0.766c-0.327-0.229-0.682-0.419-1.068-0.568c-0.388-0.149-0.805-0.225-1.256-0.225
			c-1.029,0-1.976,0.188-2.844,0.567c-0.866,0.38-1.613,0.901-2.24,1.565s-1.117,1.444-1.47,2.343
			c-0.353,0.896-0.528,1.866-0.528,2.91c0,1.035,0.176,2.004,0.528,2.904c0.353,0.901,0.843,1.683,1.47,2.349
			c0.627,0.663,1.375,1.187,2.24,1.57c0.868,0.382,1.815,0.573,2.844,0.573c0.397,0,0.769-0.058,1.114-0.174
			c0.345-0.117,0.664-0.268,0.957-0.457c0.292-0.187,0.561-0.393,0.805-0.619c0.244-0.225,0.467-0.45,0.67-0.675v5.212
			c0,0.227,0.066,0.417,0.197,0.575c0.132,0.158,0.344,0.236,0.637,0.236h2.578c0.09,0,0.188-0.019,0.292-0.056
			c0.106-0.039,0.203-0.091,0.293-0.158c0.09-0.068,0.165-0.152,0.225-0.254c0.061-0.101,0.09-0.215,0.09-0.344V82.092
			c0-0.149-0.028-0.273-0.084-0.371C99.33,81.622,99.259,81.533,99.177,81.451z M95.472,88.477c0,0.495-0.093,0.961-0.281,1.396
			c-0.187,0.436-0.443,0.813-0.766,1.132c-0.322,0.319-0.702,0.572-1.136,0.761c-0.436,0.187-0.897,0.279-1.385,0.279
			c-0.48,0-0.921-0.093-1.323-0.279c-0.402-0.188-0.746-0.441-1.03-0.761c-0.286-0.319-0.509-0.696-0.67-1.132
			c-0.162-0.435-0.242-0.9-0.242-1.396c0-0.481,0.08-0.937,0.242-1.368c0.162-0.433,0.384-0.809,0.67-1.132
			c0.285-0.323,0.628-0.577,1.03-0.767c0.401-0.187,0.842-0.28,1.323-0.28c0.473,0,0.919,0.088,1.34,0.264
			c0.419,0.178,0.792,0.417,1.114,0.722c0.322,0.304,0.583,0.662,0.783,1.074c0.199,0.414,0.31,0.853,0.332,1.317V88.477z"/>
		<path fill="#FFFFFF" d="M113.048,81.315h-2.546c-0.111,0-0.211,0.011-0.297,0.034c-0.086,0.022-0.178,0.063-0.276,0.123
			c-0.097,0.068-0.17,0.166-0.22,0.293c-0.049,0.128-0.071,0.256-0.071,0.385v7.325c0,0.323-0.08,0.63-0.238,0.919
			c-0.157,0.29-0.358,0.54-0.603,0.755c-0.243,0.214-0.51,0.385-0.799,0.513s-0.568,0.192-0.838,0.192
			c-0.316,0-0.626-0.064-0.93-0.192c-0.305-0.128-0.576-0.302-0.815-0.523c-0.241-0.223-0.435-0.478-0.581-0.768
			c-0.146-0.288-0.22-0.595-0.22-0.918v-7.338c0-0.314-0.061-0.526-0.18-0.637c-0.121-0.109-0.342-0.163-0.663-0.163h-2.603
			c-0.27,0-0.467,0.073-0.59,0.22c-0.124,0.146-0.187,0.361-0.187,0.646v7.376c0,0.863,0.136,1.676,0.405,2.438
			c0.271,0.762,0.653,1.428,1.143,1.998c0.491,0.57,1.087,1.021,1.785,1.351c0.697,0.331,1.475,0.495,2.33,0.495
			c0.593,0,1.119-0.087,1.576-0.264c0.459-0.175,0.853-0.393,1.183-0.65c0.329-0.259,0.603-0.535,0.815-0.831
			c0.215-0.296,0.377-0.56,0.49-0.791l0.349,1.437c0.03,0.112,0.068,0.222,0.115,0.325c0.043,0.106,0.1,0.199,0.167,0.281
			s0.15,0.147,0.248,0.196c0.097,0.05,0.213,0.073,0.35,0.073h1.699c0.098,0,0.2-0.011,0.31-0.034
			c0.108-0.021,0.212-0.074,0.31-0.156l-0.067,0.032c0.111-0.067,0.201-0.161,0.265-0.28c0.063-0.12,0.095-0.252,0.095-0.395V82.182
			c0-0.263-0.071-0.472-0.212-0.63C113.604,81.394,113.369,81.315,113.048,81.315z"/>
		<path fill="#FFFFFF" d="M127.955,84.496c-0.309-0.5-0.677-0.959-1.104-1.38c-0.428-0.42-0.898-0.78-1.414-1.08
			c-0.513-0.3-1.063-0.533-1.648-0.699c-0.585-0.164-1.189-0.246-1.813-0.246c-0.684,0-1.332,0.089-1.947,0.27
			c-0.616,0.18-1.187,0.431-1.712,0.754c-0.525,0.322-1,0.711-1.425,1.166c-0.424,0.454-0.783,0.952-1.08,1.491
			c-0.297,0.54-0.525,1.12-0.687,1.74c-0.162,0.619-0.242,1.259-0.242,1.919c0,1.06,0.202,2.039,0.607,2.938
			c0.405,0.902,0.953,1.684,1.645,2.348c0.69,0.665,1.494,1.185,2.409,1.56c0.917,0.376,1.888,0.563,2.916,0.563
			c0.924,0,1.798-0.17,2.624-0.512c0.825-0.341,1.567-0.816,2.229-1.425c0.111-0.082,0.21-0.178,0.293-0.286
			c0.082-0.109,0.123-0.238,0.123-0.389c0-0.083-0.01-0.164-0.033-0.242c-0.022-0.079-0.075-0.167-0.157-0.265l-1.195-1.352
			c-0.127-0.127-0.241-0.225-0.343-0.292c-0.102-0.068-0.201-0.102-0.298-0.102c-0.098,0-0.19,0.024-0.276,0.073
			c-0.086,0.048-0.189,0.122-0.31,0.22c-0.135,0.135-0.314,0.265-0.534,0.389c-0.222,0.123-0.465,0.232-0.732,0.326
			c-0.267,0.095-0.542,0.169-0.826,0.225c-0.286,0.057-0.564,0.085-0.835,0.085c-0.3,0-0.618-0.042-0.957-0.124
			c-0.338-0.083-0.656-0.22-0.957-0.411c-0.301-0.19-0.564-0.448-0.794-0.771c-0.229-0.322-0.38-0.724-0.454-1.204h8.105
			c0.474,0,0.83-0.028,1.075-0.084c0.244-0.057,0.418-0.158,0.523-0.305s0.164-0.344,0.175-0.591
			c0.011-0.248,0.017-0.567,0.017-0.957c0-0.601-0.084-1.184-0.253-1.751S128.263,84.996,127.955,84.496z M119.161,86.584
			c0.121-0.254,0.275-0.506,0.469-0.754c0.19-0.247,0.406-0.47,0.646-0.664c0.241-0.195,0.498-0.352,0.771-0.467
			c0.274-0.117,0.558-0.175,0.85-0.175c0.406,0,0.76,0.053,1.065,0.157c0.304,0.105,0.574,0.252,0.81,0.439
			c0.236,0.188,0.446,0.405,0.63,0.653c0.186,0.247,0.355,0.517,0.513,0.81H119.161z"/>
		<path fill="#FFFFFF" d="M150.461,81.451c-0.083-0.083-0.181-0.136-0.293-0.158c-0.111-0.023-0.21-0.034-0.292-0.034h-1.678
			c-0.15,0-0.267,0.01-0.349,0.028c-0.082,0.02-0.153,0.057-0.208,0.113c-0.057,0.055-0.109,0.143-0.158,0.258
			c-0.049,0.117-0.11,0.27-0.187,0.456l-0.438,1.362c-0.203-0.292-0.434-0.581-0.693-0.866c-0.258-0.285-0.546-0.54-0.866-0.766
			c-0.319-0.226-0.673-0.408-1.064-0.547c-0.39-0.139-0.817-0.207-1.281-0.207c-1.021,0-1.979,0.188-2.872,0.567
			c-0.895,0.38-1.671,0.901-2.331,1.565s-1.182,1.444-1.565,2.343c-0.383,0.896-0.573,1.866-0.573,2.91
			c0,0.689,0.086,1.352,0.259,1.987c0.172,0.633,0.419,1.226,0.736,1.772c0.32,0.549,0.701,1.046,1.144,1.493
			c0.442,0.445,0.937,0.828,1.48,1.147c0.545,0.318,1.13,0.565,1.757,0.737c0.627,0.173,1.281,0.259,1.966,0.259
			c0.381,0,0.741-0.066,1.08-0.196c0.338-0.132,0.65-0.295,0.938-0.491c0.29-0.193,0.556-0.406,0.795-0.635
			c0.24-0.229,0.463-0.446,0.664-0.648l0.326,0.845c0.045,0.128,0.089,0.246,0.13,0.354c0.04,0.109,0.093,0.201,0.152,0.276
			s0.14,0.133,0.236,0.175c0.098,0.041,0.225,0.062,0.383,0.062h2.218c0.082,0,0.181-0.012,0.292-0.033
			c0.112-0.022,0.21-0.075,0.293-0.158c0.106-0.066,0.182-0.159,0.225-0.275c0.046-0.116,0.068-0.238,0.068-0.366V82.092
			c0-0.135-0.022-0.255-0.068-0.36C150.643,81.627,150.567,81.533,150.461,81.451z M146.194,89.867
			c-0.18,0.432-0.43,0.805-0.748,1.119c-0.32,0.315-0.695,0.565-1.126,0.749c-0.433,0.185-0.899,0.276-1.403,0.276
			c-0.487,0-0.932-0.092-1.334-0.276c-0.401-0.184-0.745-0.434-1.028-0.749c-0.287-0.314-0.505-0.688-0.659-1.119
			c-0.155-0.432-0.23-0.896-0.23-1.391c0-0.481,0.075-0.938,0.23-1.374c0.154-0.436,0.372-0.819,0.659-1.148
			c0.283-0.33,0.627-0.591,1.028-0.782c0.402-0.191,0.847-0.287,1.334-0.287c0.504,0,0.971,0.096,1.403,0.287
			c0.431,0.191,0.806,0.452,1.126,0.782c0.318,0.329,0.568,0.713,0.748,1.148c0.181,0.436,0.27,0.893,0.27,1.374
			C146.464,88.972,146.375,89.436,146.194,89.867z"/>
		<path fill="#FFFFFF" d="M156.783,76.575c-0.019-0.067-0.056-0.124-0.113-0.169c-0.056-0.045-0.14-0.068-0.253-0.068h-2.904
			c-0.128,0-0.25,0.036-0.366,0.108c-0.116,0.07-0.193,0.192-0.23,0.365l-0.586,2.319c-0.016,0.067-0.033,0.15-0.057,0.248
			c-0.022,0.097-0.033,0.188-0.033,0.271s0.021,0.153,0.062,0.214c0.042,0.06,0.119,0.09,0.23,0.09H155
			c0.142,0,0.256-0.038,0.342-0.113c0.087-0.074,0.175-0.194,0.265-0.36l1.104-2.42c0.037-0.082,0.063-0.167,0.078-0.254
			S156.802,76.643,156.783,76.575z"/>
		<path fill="#FFFFFF" d="M155.675,81.558c-0.091-0.079-0.189-0.139-0.293-0.181c-0.104-0.041-0.203-0.062-0.293-0.062h-2.579
			c-0.285,0-0.495,0.086-0.629,0.258c-0.137,0.174-0.202,0.381-0.202,0.619v12.555c0,0.578,0.276,0.867,0.831,0.867h2.579
			c0.293,0,0.518-0.072,0.675-0.22c0.159-0.146,0.236-0.362,0.236-0.647V82.192c0-0.135-0.031-0.254-0.095-0.358
			C155.842,81.728,155.764,81.637,155.675,81.558z"/>
	</g>
</g>
<g>
</g>
<g>
</g>
<g>
</g>
<g>
</g>
<g>
</g>
<g>
</g>
<g>
</g>
<g>
</g>
<g>
</g>
<g>
</g>
<g>
</g>
<g>
</g>
<g>
</g>
<g>
</g>
<g>
</g>
</svg>
