<?xml version="1.0" encoding="utf-8"?>
<!-- Generator: Adobe Illustrator 16.0.0, SVG Export Plug-In . SVG Version: 6.00 Build 0)  -->
<!DOCTYPE svg PUBLIC "-//W3C//DTD SVG 1.1//EN" "http://www.w3.org/Graphics/SVG/1.1/DTD/svg11.dtd">
<svg version="1.1" id="Layer_1" xmlns="http://www.w3.org/2000/svg" xmlns:xlink="http://www.w3.org/1999/xlink" x="0px" y="0px"
	 width="200px" height="100px" viewBox="0 0 200 100" enable-background="new 0 0 200 100" xml:space="preserve">
<g>
	<g>
		<linearGradient id="SVGID_1_" gradientUnits="userSpaceOnUse" x1="93.3442" y1="41.6636" x2="130.7773" y2="41.6636">
			<stop  offset="0" style="stop-color:#F2D015"/>
			<stop  offset="1" style="stop-color:#F2D015"/>
		</linearGradient>
		<polygon fill="url(#SVGID_1_)" points="126.44,35.148 93.344,35.148 97.465,48.179 130.777,48.179 		"/>
		<g>
			<linearGradient id="SVGID_2_" gradientUnits="userSpaceOnUse" x1="97.9614" y1="-2.0718" x2="106.5026" y2="27.3679">
				<stop  offset="0.2724" style="stop-color:#C75028"/>
				<stop  offset="0.8537" style="stop-color:#F2D015"/>
			</linearGradient>
			<polygon fill="url(#SVGID_2_)" points="112.359,23.324 104.727,0.475 91.671,0.475 99.369,23.324 			"/>
			<linearGradient id="SVGID_3_" gradientUnits="userSpaceOnUse" x1="118.8945" y1="62.0781" x2="104.7456" y2="20.44">
				<stop  offset="0.0976" style="stop-color:#BDD24F"/>
				<stop  offset="0.4756" style="stop-color:#F2D015"/>
			</linearGradient>
			<polygon fill="url(#SVGID_3_)" points="112.959,25.147 99.914,25.147 110.651,57.287 123.682,57.287 			"/>
		</g>
		<polygon opacity="0.1" fill="#FFFFFF" points="91.812,0.475 112.359,23.324 104.625,0.475 		"/>
		<linearGradient id="SVGID_4_" gradientUnits="userSpaceOnUse" x1="91.249" y1="49.1426" x2="114.6964" y2="30.1421">
			<stop  offset="0" style="stop-color:#DDC925"/>
			<stop  offset="1" style="stop-color:#F2D015"/>
		</linearGradient>
		<polygon fill="url(#SVGID_4_)" points="116.298,35.148 107.61,48.179 97.467,48.179 93.346,35.148 		"/>
		<linearGradient id="SVGID_5_" gradientUnits="userSpaceOnUse" x1="90.9507" y1="61.249" x2="86.5422" y2="-2.843">
			<stop  offset="0" style="stop-color:#ED478A"/>
			<stop  offset="0.565" style="stop-color:#F05F71"/>
			<stop  offset="0.935" style="stop-color:#F58F59"/>
		</linearGradient>
		<polygon fill="url(#SVGID_5_)" points="104.729,0.475 91.674,0.475 72.718,57.287 85.749,57.287 		"/>
		<defs>
			<filter id="Adobe_OpacityMaskFilter" filterUnits="userSpaceOnUse" x="72.718" y="0.475" width="28.512" height="56.813">
				<feColorMatrix  type="matrix" values="1 0 0 0 0  0 1 0 0 0  0 0 1 0 0  0 0 0 1 0"/>
			</filter>
		</defs>
		<mask maskUnits="userSpaceOnUse" x="72.718" y="0.475" width="28.512" height="56.813" id="SVGID_6_">
			<g filter="url(#Adobe_OpacityMaskFilter)">
				<linearGradient id="SVGID_7_" gradientUnits="userSpaceOnUse" x1="73.292" y1="64.4434" x2="108.2939" y2="-20.5004">
					<stop  offset="0" style="stop-color:#FFFFFF"/>
					<stop  offset="1" style="stop-color:#000000"/>
				</linearGradient>
				<rect x="70.317" y="-0.863" fill="url(#SVGID_7_)" width="35.479" height="58.95"/>
			</g>
		</mask>
		<polygon opacity="0.2" mask="url(#SVGID_6_)" fill="#FFFFFF" points="101.23,10.948 91.674,0.475 72.718,57.287 		"/>
		<defs>
			<filter id="Adobe_OpacityMaskFilter_1_" filterUnits="userSpaceOnUse" x="107.607" y="35.148" width="8.69" height="22.139">
				<feColorMatrix  type="matrix" values="1 0 0 0 0  0 1 0 0 0  0 0 1 0 0  0 0 0 1 0"/>
			</filter>
		</defs>
		<mask maskUnits="userSpaceOnUse" x="107.607" y="35.148" width="8.69" height="22.139" id="SVGID_8_">
			<g filter="url(#Adobe_OpacityMaskFilter_1_)">
				<linearGradient id="SVGID_9_" gradientUnits="userSpaceOnUse" x1="106.4229" y1="61.0713" x2="119.861" y2="32.0449">
					<stop  offset="0" style="stop-color:#FFFFFF"/>
					<stop  offset="1" style="stop-color:#231F20"/>
				</linearGradient>
				<rect x="101.698" y="34.702" fill="url(#SVGID_9_)" width="23.203" height="23.024"/>
			</g>
		</mask>
		<polygon opacity="0.2" mask="url(#SVGID_8_)" fill="#FFFFFF" points="110.651,57.287 109.15,52.794 107.607,48.179 
			116.298,35.148 		"/>
		<polygon opacity="0.1" fill="#FFFFFF" points="97.467,48.179 116.298,35.148 93.346,35.148 		"/>
		<polygon opacity="0.1" fill="#FFFFFF" points="116.298,35.148 112.959,25.147 99.914,25.147 		"/>
		<defs>
			<filter id="Adobe_OpacityMaskFilter_2_" filterUnits="userSpaceOnUse" x="116.298" y="35.148" width="14.479" height="13.03">
				<feColorMatrix  type="matrix" values="1 0 0 0 0  0 1 0 0 0  0 0 1 0 0  0 0 0 1 0"/>
			</filter>
		</defs>
		<mask maskUnits="userSpaceOnUse" x="116.298" y="35.148" width="14.479" height="13.03" id="SVGID_10_">
			<g filter="url(#Adobe_OpacityMaskFilter_2_)">
				<linearGradient id="SVGID_11_" gradientUnits="userSpaceOnUse" x1="124.8633" y1="53.6973" x2="123.635" y2="28.4151">
					<stop  offset="0" style="stop-color:#FFFFFF"/>
					<stop  offset="1" style="stop-color:#231F20"/>
				</linearGradient>
				<rect x="115.543" y="33.837" fill="url(#SVGID_11_)" width="17.502" height="16.271"/>
			</g>
		</mask>
		<polygon opacity="0.2" mask="url(#SVGID_10_)" fill="#FFFFFF" points="126.44,35.148 130.777,48.179 116.298,35.148 		"/>
	</g>
	<g>
		<g>
			<path fill="#FFFFFF" d="M53.907,82.877c-0.509,0.62-1.128,1.114-1.854,1.479c-0.728,0.365-1.528,0.548-2.405,0.548
				c-0.757,0-1.466-0.138-2.128-0.414c-0.664-0.276-1.24-0.652-1.73-1.129c-0.492-0.476-0.879-1.035-1.162-1.677
				c-0.282-0.643-0.424-1.333-0.424-2.072c0-0.74,0.143-1.431,0.424-2.071c0.282-0.643,0.67-1.203,1.162-1.685
				c0.491-0.479,1.067-0.856,1.73-1.128c0.662-0.272,1.372-0.408,2.128-0.408c0.877,0,1.677,0.183,2.405,0.549
				c0.726,0.365,1.332,0.841,1.817,1.428L52.505,77.7c-0.314-0.451-0.721-0.814-1.219-1.091c-0.496-0.276-1.043-0.414-1.638-0.414
				c-0.477,0-0.924,0.091-1.345,0.274c-0.42,0.182-0.788,0.429-1.104,0.738c-0.314,0.312-0.563,0.673-0.745,1.084
				c-0.184,0.413-0.274,0.854-0.274,1.32c0,0.459,0.09,0.896,0.274,1.308c0.182,0.412,0.43,0.773,0.745,1.083
				c0.315,0.311,0.684,0.558,1.104,0.74c0.421,0.183,0.869,0.274,1.345,0.274c0.63,0,1.187-0.143,1.672-0.428
				c0.483-0.285,0.888-0.66,1.211-1.128L53.907,82.877z"/>
			<path fill="#FFFFFF" d="M64.952,79.612c0,0.731-0.143,1.42-0.428,2.066c-0.285,0.646-0.672,1.207-1.165,1.683
				c-0.494,0.477-1.066,0.853-1.719,1.129c-0.655,0.276-1.35,0.414-2.09,0.414c-0.739,0-1.436-0.138-2.095-0.414
				c-0.657-0.276-1.233-0.652-1.726-1.129c-0.492-0.476-0.881-1.035-1.165-1.677c-0.285-0.643-0.428-1.333-0.428-2.072
				c0-0.74,0.143-1.433,0.428-2.078c0.283-0.646,0.673-1.207,1.165-1.684c0.492-0.477,1.068-0.851,1.726-1.122
				c0.659-0.272,1.356-0.408,2.095-0.408c0.74,0,1.436,0.136,2.09,0.408c0.653,0.271,1.226,0.648,1.719,1.128
				c0.492,0.481,0.88,1.042,1.165,1.685C64.809,78.182,64.952,78.872,64.952,79.612z M62.975,79.612c0-0.467-0.09-0.907-0.268-1.32
				c-0.179-0.411-0.424-0.772-0.735-1.084c-0.312-0.31-0.674-0.557-1.091-0.738c-0.417-0.184-0.861-0.274-1.33-0.274
				c-0.475,0-0.924,0.091-1.34,0.274c-0.418,0.182-0.783,0.429-1.094,0.738c-0.31,0.312-0.555,0.673-0.734,1.084
				c-0.179,0.413-0.268,0.854-0.268,1.32c0,0.459,0.089,0.896,0.268,1.313s0.425,0.78,0.734,1.091
				c0.311,0.31,0.676,0.557,1.094,0.739c0.416,0.183,0.865,0.274,1.34,0.274c0.469,0,0.913-0.092,1.33-0.274s0.78-0.43,1.091-0.739
				c0.311-0.311,0.556-0.674,0.735-1.091C62.884,80.509,62.975,80.071,62.975,79.612z"/>
			<path fill="#FFFFFF" d="M76.671,84.714h-1.939v-6.811l-3.213,5.419l-3.085-5.47v6.861h-1.94V74.512h2.233l2.831,5.063
				l2.959-5.063h2.155V84.714z"/>
			<path fill="#FFFFFF" d="M87.522,74.512v5.534c0,0.68-0.101,1.313-0.307,1.9c-0.204,0.587-0.498,1.099-0.886,1.536
				c-0.386,0.438-0.858,0.783-1.416,1.032c-0.556,0.252-1.192,0.377-1.905,0.377c-0.699,0-1.327-0.124-1.888-0.37
				s-1.039-0.584-1.436-1.014c-0.394-0.429-0.699-0.935-0.91-1.517c-0.213-0.583-0.319-1.209-0.319-1.882v-5.598h1.977v5.611
				c0,0.391,0.055,0.759,0.166,1.103s0.271,0.645,0.484,0.898c0.211,0.256,0.478,0.458,0.797,0.605
				c0.318,0.149,0.682,0.224,1.089,0.224c0.434,0,0.811-0.07,1.129-0.21c0.319-0.141,0.583-0.336,0.791-0.587
				c0.208-0.25,0.365-0.546,0.47-0.887c0.107-0.339,0.161-0.714,0.161-1.121v-5.637H87.522z"/>
			<path fill="#FFFFFF" d="M97.662,84.714h-1.94l-4.602-7.155v7.155h-1.938V74.512h2.219l4.322,6.656v-6.656h1.94V84.714z"/>
			<path fill="#FFFFFF" d="M101.55,84.714h-1.978V74.524h1.978V84.714z"/>
			<path fill="#FFFFFF" d="M112.784,82.877c-0.511,0.62-1.128,1.114-1.855,1.479c-0.727,0.365-1.528,0.548-2.403,0.548
				c-0.757,0-1.467-0.138-2.13-0.414c-0.664-0.276-1.24-0.652-1.73-1.129c-0.49-0.476-0.878-1.035-1.162-1.677
				c-0.281-0.643-0.423-1.333-0.423-2.072c0-0.74,0.142-1.431,0.423-2.071c0.284-0.643,0.672-1.203,1.162-1.685
				c0.49-0.479,1.066-0.856,1.73-1.128c0.663-0.272,1.373-0.408,2.13-0.408c0.875,0,1.677,0.183,2.403,0.549
				c0.728,0.365,1.333,0.841,1.817,1.428L111.38,77.7c-0.313-0.451-0.719-0.814-1.217-1.091c-0.496-0.276-1.043-0.414-1.638-0.414
				c-0.477,0-0.924,0.091-1.346,0.274c-0.421,0.182-0.789,0.429-1.104,0.738c-0.313,0.312-0.563,0.673-0.746,1.084
				c-0.183,0.413-0.274,0.854-0.274,1.32c0,0.459,0.092,0.896,0.274,1.308c0.184,0.412,0.433,0.773,0.746,1.083
				c0.314,0.311,0.683,0.558,1.104,0.74c0.422,0.183,0.869,0.274,1.346,0.274c0.628,0,1.187-0.143,1.67-0.428
				c0.484-0.285,0.89-0.66,1.211-1.128L112.784,82.877z"/>
			<path fill="#FFFFFF" d="M124.107,84.714h-2.167l-0.943-2.041h-4.948l-0.957,2.041h-2.167l4.82-10.202h1.543L124.107,84.714z
				 M120.219,81.028l-1.695-3.673l-1.723,3.673H120.219z"/>
			<path fill="#FFFFFF" d="M133.634,82.877c-0.468,0.561-1.022,1.018-1.664,1.371c-0.643,0.353-1.349,0.563-2.123,0.631
				l-0.127,0.562c0.425,0.067,0.737,0.229,0.937,0.484c0.2,0.255,0.299,0.53,0.299,0.829c0,0.145-0.03,0.288-0.095,0.434
				c-0.063,0.145-0.156,0.276-0.281,0.395c-0.122,0.119-0.268,0.217-0.434,0.294c-0.165,0.076-0.351,0.115-0.553,0.115
				c-0.266,0-0.497-0.03-0.696-0.09c-0.2-0.06-0.389-0.162-0.568-0.306l0.091-0.434c0.067,0.042,0.148,0.078,0.242,0.108
				c0.093,0.029,0.182,0.044,0.268,0.044c0.221,0,0.403-0.065,0.548-0.197c0.146-0.132,0.217-0.283,0.217-0.453
				c0-0.195-0.07-0.361-0.21-0.497c-0.141-0.137-0.326-0.204-0.555-0.204c-0.052,0-0.105,0.004-0.159,0.013
				c-0.057,0.009-0.104,0.017-0.147,0.026l0.217-1.123c-0.697-0.059-1.344-0.238-1.943-0.535c-0.601-0.298-1.122-0.683-1.563-1.154
				s-0.789-1.014-1.039-1.626c-0.251-0.611-0.375-1.263-0.375-1.951c0-0.74,0.141-1.431,0.423-2.071
				c0.283-0.643,0.67-1.203,1.16-1.685c0.492-0.479,1.068-0.856,1.731-1.128c0.662-0.272,1.373-0.408,2.129-0.408
				c0.876,0,1.678,0.183,2.404,0.549c0.727,0.365,1.333,0.841,1.817,1.428l-1.365,1.403c-0.314-0.451-0.721-0.814-1.219-1.091
				c-0.496-0.276-1.042-0.414-1.638-0.414c-0.476,0-0.924,0.091-1.344,0.274c-0.422,0.182-0.79,0.429-1.104,0.738
				c-0.316,0.312-0.564,0.673-0.747,1.084c-0.184,0.413-0.273,0.854-0.273,1.32c0,0.459,0.092,0.896,0.275,1.308
				c0.183,0.412,0.433,0.773,0.748,1.083c0.315,0.311,0.684,0.558,1.106,0.74c0.421,0.183,0.872,0.274,1.35,0.274
				c0.63,0,1.188-0.143,1.673-0.428c0.483-0.285,0.889-0.66,1.21-1.128L133.634,82.877z"/>
			<path fill="#FFFFFF" d="M144.945,84.714h-2.167l-0.945-2.041h-4.947l-0.956,2.041h-2.169l4.821-10.202h1.542L144.945,84.714z
				 M141.986,71.426c-0.008,0.264-0.042,0.525-0.102,0.783c-0.06,0.261-0.158,0.493-0.293,0.702
				c-0.138,0.208-0.31,0.376-0.517,0.504c-0.208,0.127-0.466,0.19-0.771,0.19c-0.196,0-0.379-0.029-0.549-0.089
				s-0.334-0.123-0.49-0.191c-0.158-0.068-0.316-0.132-0.473-0.19c-0.157-0.06-0.313-0.09-0.466-0.09s-0.268,0.06-0.343,0.179
				c-0.077,0.119-0.124,0.247-0.142,0.382h-1.097c0-0.255,0.032-0.512,0.097-0.771c0.063-0.259,0.16-0.491,0.292-0.701
				c0.132-0.207,0.306-0.377,0.517-0.509c0.213-0.132,0.468-0.198,0.767-0.198c0.186,0,0.366,0.029,0.541,0.089
				s0.342,0.123,0.504,0.191c0.161,0.068,0.315,0.132,0.466,0.191c0.147,0.06,0.287,0.089,0.414,0.089
				c0.17,0,0.297-0.055,0.383-0.165c0.084-0.111,0.14-0.243,0.166-0.396H141.986z M141.056,81.028l-1.696-3.673l-1.721,3.673
				H141.056z"/>
			<path fill="#FFFFFF" d="M155.567,79.612c0,0.731-0.143,1.42-0.427,2.066c-0.285,0.646-0.673,1.207-1.164,1.683
				c-0.494,0.477-1.067,0.853-1.72,1.129c-0.654,0.276-1.352,0.414-2.089,0.414c-0.74,0-1.438-0.138-2.097-0.414
				c-0.657-0.276-1.231-0.652-1.726-1.129c-0.491-0.476-0.881-1.035-1.164-1.677c-0.285-0.643-0.428-1.333-0.428-2.072
				c0-0.74,0.143-1.433,0.428-2.078c0.283-0.646,0.673-1.207,1.164-1.684c0.494-0.477,1.068-0.851,1.726-1.122
				c0.659-0.272,1.356-0.408,2.097-0.408c0.737,0,1.435,0.136,2.089,0.408c0.652,0.271,1.226,0.648,1.72,1.128
				c0.491,0.481,0.879,1.042,1.164,1.685C155.425,78.182,155.567,78.872,155.567,79.612z M153.592,79.612
				c0-0.467-0.089-0.907-0.269-1.32c-0.179-0.411-0.425-0.772-0.735-1.084c-0.312-0.31-0.675-0.557-1.091-0.738
				c-0.419-0.184-0.861-0.274-1.329-0.274c-0.479,0-0.926,0.091-1.343,0.274c-0.417,0.182-0.781,0.429-1.091,0.738
				c-0.313,0.312-0.557,0.673-0.735,1.084c-0.178,0.413-0.269,0.854-0.269,1.32c0,0.459,0.091,0.896,0.269,1.313
				c0.179,0.417,0.423,0.78,0.735,1.091c0.31,0.31,0.674,0.557,1.091,0.739s0.864,0.274,1.343,0.274c0.468,0,0.91-0.092,1.329-0.274
				c0.416-0.183,0.779-0.43,1.091-0.739c0.311-0.311,0.557-0.674,0.735-1.091C153.503,80.509,153.592,80.071,153.592,79.612z"/>
		</g>
		<g>
			<path fill="#FFFFFF" d="M44.51,90.445h6.349v0.6h-5.687v3.532h5.114v0.6h-5.114v3.597h5.751v0.6H44.51V90.445z"/>
			<path fill="#FFFFFF" d="M57.988,99.5c-0.714,0-1.357-0.12-1.932-0.357c-0.573-0.237-1.128-0.595-1.665-1.071l0.434-0.497
				c0.247,0.229,0.492,0.427,0.734,0.593c0.242,0.167,0.49,0.302,0.745,0.408c0.256,0.106,0.524,0.188,0.805,0.242
				c0.28,0.056,0.587,0.083,0.918,0.083s0.637-0.044,0.918-0.134c0.28-0.09,0.518-0.212,0.714-0.37
				c0.195-0.156,0.348-0.344,0.458-0.561c0.112-0.217,0.167-0.452,0.167-0.708v-0.025c0-0.238-0.037-0.45-0.109-0.638
				c-0.072-0.188-0.204-0.357-0.396-0.51c-0.191-0.153-0.449-0.291-0.771-0.415c-0.324-0.123-0.74-0.235-1.25-0.337
				c-0.535-0.11-0.995-0.241-1.376-0.39c-0.383-0.148-0.696-0.323-0.938-0.522c-0.244-0.2-0.42-0.433-0.53-0.696
				c-0.11-0.263-0.166-0.564-0.166-0.903v-0.026c0-0.332,0.072-0.64,0.218-0.924c0.144-0.285,0.343-0.534,0.599-0.747
				s0.557-0.378,0.906-0.498c0.348-0.118,0.731-0.178,1.148-0.178c0.645,0,1.205,0.089,1.677,0.268
				c0.472,0.179,0.933,0.451,1.384,0.816l-0.421,0.522c-0.426-0.365-0.852-0.625-1.281-0.777c-0.429-0.153-0.892-0.229-1.384-0.229
				c-0.331,0-0.631,0.044-0.9,0.133c-0.267,0.09-0.497,0.211-0.688,0.363c-0.191,0.153-0.339,0.333-0.44,0.537
				c-0.103,0.203-0.153,0.42-0.153,0.65v0.025c0,0.237,0.036,0.452,0.109,0.644c0.072,0.191,0.204,0.366,0.396,0.522
				c0.19,0.157,0.457,0.3,0.797,0.428c0.34,0.127,0.774,0.246,1.301,0.356c1.036,0.213,1.784,0.512,2.244,0.899
				c0.459,0.387,0.688,0.907,0.688,1.563v0.025c0,0.357-0.074,0.687-0.222,0.988c-0.149,0.302-0.354,0.559-0.612,0.771
				c-0.26,0.213-0.57,0.378-0.932,0.497S58.422,99.5,57.988,99.5z"/>
			<path fill="#FFFFFF" d="M67.514,91.045h-3.113v-0.6h6.887v0.6h-3.112v8.328h-0.662V91.045z"/>
			<path fill="#FFFFFF" d="M75.216,90.445h3.749c0.553,0,1.042,0.079,1.467,0.236c0.426,0.157,0.774,0.373,1.046,0.644
				c0.211,0.213,0.377,0.462,0.497,0.747c0.12,0.284,0.178,0.588,0.178,0.911v0.025c0,0.375-0.064,0.707-0.196,1.002
				c-0.134,0.292-0.316,0.545-0.549,0.758c-0.234,0.214-0.51,0.385-0.829,0.517s-0.665,0.224-1.039,0.274l2.945,3.813h-0.843
				l-2.843-3.699h-0.026h-2.895v3.699h-0.662V90.445z M78.888,95.075c0.375,0,0.72-0.047,1.039-0.141
				c0.32-0.094,0.593-0.229,0.823-0.403c0.23-0.175,0.411-0.388,0.543-0.64c0.131-0.251,0.197-0.539,0.197-0.863v-0.026
				c0-0.604-0.224-1.083-0.669-1.432c-0.446-0.351-1.078-0.525-1.894-0.525h-3.048v4.03H78.888z"/>
			<path fill="#FFFFFF" d="M89.741,90.382h0.636l4.158,8.991h-0.727l-1.135-2.5h-5.266l-1.135,2.5h-0.688L89.741,90.382z
				 M92.393,96.273l-2.346-5.165l-2.358,5.165H92.393z"/>
			<path fill="#FFFFFF" d="M100.81,91.045h-3.111v-0.6h6.886v0.6h-3.111v8.328h-0.663V91.045z"/>
			<path fill="#FFFFFF" d="M108.512,90.445h6.351v0.6h-5.688v3.532h5.112v0.6h-5.112v3.597h5.752v0.6h-6.415V90.445z M112.248,87.92
				l0.778,0.384l-1.365,1.313h-0.535L112.248,87.92z"/>
			<path fill="#FFFFFF" d="M123.062,99.525c-0.705,0-1.337-0.12-1.894-0.363c-0.558-0.242-1.026-0.572-1.409-0.988
				c-0.384-0.416-0.676-0.903-0.88-1.46c-0.204-0.558-0.305-1.15-0.305-1.779v-0.025c0-0.604,0.103-1.184,0.311-1.741
				c0.209-0.557,0.506-1.047,0.894-1.473c0.387-0.425,0.853-0.766,1.396-1.021s1.147-0.382,1.81-0.382
				c0.366,0,0.7,0.025,1.002,0.076c0.303,0.051,0.583,0.127,0.842,0.229s0.506,0.226,0.738,0.37
				c0.234,0.145,0.463,0.311,0.684,0.497l-0.434,0.497c-0.35-0.306-0.746-0.561-1.193-0.765c-0.446-0.204-1.004-0.307-1.677-0.307
				c-0.544,0-1.041,0.106-1.491,0.319c-0.45,0.212-0.84,0.501-1.168,0.865c-0.326,0.365-0.579,0.789-0.759,1.273
				c-0.178,0.483-0.267,0.993-0.267,1.527v0.025c0,0.578,0.086,1.112,0.261,1.604s0.428,0.916,0.76,1.273
				c0.331,0.356,0.733,0.636,1.205,0.84s1.005,0.306,1.6,0.306c0.28,0,0.557-0.026,0.829-0.082c0.273-0.055,0.529-0.129,0.771-0.223
				c0.242-0.093,0.47-0.202,0.683-0.324c0.212-0.123,0.4-0.251,0.562-0.388v-2.554h-2.985v-0.6h3.621v3.434
				c-0.407,0.357-0.91,0.668-1.51,0.936C124.459,99.392,123.792,99.525,123.062,99.525z"/>
			<path fill="#FFFFFF" d="M130.969,90.445h0.662v8.928h-0.662V90.445z"/>
			<path fill="#FFFFFF" d="M140.328,99.525c-0.638,0-1.229-0.119-1.771-0.357c-0.546-0.237-1.015-0.563-1.41-0.976
				s-0.703-0.898-0.924-1.46c-0.223-0.561-0.333-1.16-0.333-1.798v-0.025c0-0.629,0.113-1.224,0.339-1.785s0.536-1.052,0.93-1.473
				c0.396-0.421,0.866-0.754,1.41-0.995c0.544-0.242,1.139-0.363,1.785-0.363c0.398,0,0.761,0.034,1.084,0.103
				c0.323,0.067,0.624,0.165,0.899,0.292c0.275,0.128,0.535,0.279,0.778,0.453c0.241,0.174,0.477,0.368,0.707,0.58l-0.471,0.484
				c-0.196-0.187-0.4-0.36-0.613-0.522c-0.213-0.161-0.441-0.299-0.682-0.414c-0.242-0.114-0.508-0.207-0.791-0.274
				c-0.285-0.068-0.593-0.103-0.926-0.103c-0.534,0-1.031,0.103-1.491,0.307c-0.459,0.204-0.856,0.486-1.192,0.848
				c-0.335,0.361-0.599,0.784-0.79,1.269s-0.287,1.008-0.287,1.569v0.025c0,0.561,0.097,1.086,0.293,1.574
				c0.196,0.489,0.461,0.915,0.797,1.275c0.337,0.361,0.734,0.646,1.192,0.855c0.458,0.208,0.956,0.312,1.492,0.312
				c0.646,0,1.206-0.119,1.683-0.357c0.477-0.237,0.939-0.581,1.391-1.032l0.445,0.434c-0.237,0.229-0.48,0.439-0.732,0.631
				c-0.251,0.191-0.518,0.355-0.803,0.491s-0.593,0.242-0.926,0.319C141.08,99.487,140.719,99.525,140.328,99.525z"/>
			<path fill="#FFFFFF" d="M151.002,90.382h0.638l4.157,8.991h-0.727l-1.136-2.5h-5.267l-1.135,2.5h-0.688L151.002,90.382z
				 M153.654,96.273l-2.346-5.165l-2.36,5.165H153.654z"/>
		</g>
	</g>
</g>
<g>
</g>
<g>
</g>
<g>
</g>
<g>
</g>
<g>
</g>
<g>
</g>
<g>
</g>
<g>
</g>
<g>
</g>
<g>
</g>
<g>
</g>
<g>
</g>
<g>
</g>
<g>
</g>
<g>
</g>
</svg>
