<?xml version="1.0" encoding="utf-8"?>
<!-- Generator: Adobe Illustrator 16.0.0, SVG Export Plug-In . SVG Version: 6.00 Build 0)  -->
<!DOCTYPE svg PUBLIC "-//W3C//DTD SVG 1.1//EN" "http://www.w3.org/Graphics/SVG/1.1/DTD/svg11.dtd">
<svg version="1.1" id="Layer_1" xmlns="http://www.w3.org/2000/svg" xmlns:xlink="http://www.w3.org/1999/xlink" x="0px" y="0px"
	 width="200px" height="100px" viewBox="0 0 200 100" enable-background="new 0 0 200 100" xml:space="preserve">
<g>
	<g>
		<polygon fill="#FFFFFF" points="146.248,28.125 140.973,49.165 152.765,49.165 151.364,54.614 132.567,54.614 139.242,28.125 		
			"/>
		<path fill="#FFFFFF" d="M130.236,28.1v26.514h-6.871l-0.012-5.254h-8.075l-3.214,5.254h-7.51l16.283-26.491L130.236,28.1z
			 M123.378,36.348l-4.785,7.648h4.761L123.378,36.348z"/>
		<polygon fill="#FFFFFF" points="95.329,54.614 102.003,28.125 108.899,28.125 102.262,54.614 		"/>
		<polygon fill="#FFFFFF" points="87.955,28.125 82.679,49.165 94.469,49.165 93.083,54.614 74.273,54.614 80.949,28.125 		"/>
		<polygon fill="#FFFFFF" points="65.122,54.614 71.783,28.125 78.679,28.125 72.053,54.614 		"/>
		<polygon fill="#FFFFFF" points="46.127,46.013 44.814,51.254 52.409,51.242 53.722,46 		"/>
		<polygon fill="#FFFFFF" points="48.36,37.092 47.059,42.299 65.931,42.285 67.242,37.068 		"/>
		<polygon fill="#C9C9C9" points="46.864,52.109 51.563,54.614 52.2,52.109 		"/>
		<polygon fill="#C9C9C9" points="48.987,42.995 53.856,45.451 54.47,42.995 		"/>
		<polygon fill="#C9C9C9" points="51.01,34.026 56.066,36.653 56.716,34.026 		"/>
		<polygon fill="#FFFFFF" points="50.606,28.125 49.306,33.343 68.212,33.183 69.477,28.125 		"/>
	</g>
	<g>
		<path fill="#FFFFFF" d="M67.886,60.433c2.3,0,3.445,1.253,3.445,3.699c0,2.457-1.145,3.687-3.445,3.687h-2.222v-7.386H67.886z
			 M66.23,67.289h1.609c2.006,0,2.924-1.01,2.924-3.157c0-2.16-0.918-3.171-2.924-3.171H66.23V67.289z"/>
		<path fill="#FFFFFF" d="M74.415,60.433v7.386h-0.556v-7.386H74.415z"/>
		<path fill="#FFFFFF" d="M81.657,65.935c0,1.159-0.861,1.986-2.55,1.986c-0.93,0-1.666-0.229-2.221-0.504v-0.609
			c0.499,0.287,1.212,0.552,2.176,0.552c1.145,0,2.017-0.449,2.017-1.425c0-2.331-4.159-1.079-4.159-3.618
			c0-1.022,0.669-1.998,2.402-1.998c0.771,0,1.417,0.195,1.938,0.449v0.585c-0.476-0.252-1.122-0.472-1.881-0.472
			c-1.247,0-1.881,0.552-1.881,1.436C77.498,64.246,81.657,63.12,81.657,65.935z"/>
		<path fill="#FFFFFF" d="M89.376,60.433v0.552h-2.641v6.834h-0.566v-6.834h-2.652v-0.552H89.376z"/>
		<path fill="#FFFFFF" d="M96.166,67.818l-1.96-3.067h-2.096v3.067h-0.567v-7.386h2.584c1.542,0,2.415,0.77,2.415,2.126
			c0,1.527-1.156,2.01-1.746,2.102l2.028,3.158H96.166L96.166,67.818z M92.109,60.973v3.238h1.984c1.45,0,1.881-0.747,1.881-1.618
			c0-0.828-0.374-1.621-1.881-1.621L92.109,60.973L92.109,60.973z"/>
		<path fill="#FFFFFF" d="M99.658,60.433v7.386h-0.555v-7.386H99.658z"/>
		<path fill="#FFFFFF" d="M107.648,65.808c0,1.332-0.952,2.011-2.527,2.011h-2.64v-7.386h2.391c1.79,0,2.356,0.907,2.356,1.872
			c0,1.079-0.691,1.561-1.043,1.619C106.548,63.96,107.648,64.384,107.648,65.808z M104.928,60.973h-1.893v2.779h1.961
			c0.964,0,1.678-0.355,1.678-1.378C106.674,61.409,106.05,60.973,104.928,60.973z M107.082,65.762c0-1.205-0.953-1.48-1.938-1.48
			h-2.108v3.009h2.132C106.231,67.289,107.082,66.91,107.082,65.762z"/>
		<path fill="#FFFFFF" d="M110.562,60.433v4.503c0,1.642,0.794,2.47,2.312,2.47c1.53,0,2.324-0.828,2.324-2.47v-4.503h0.566v4.479
			c0,1.951-1.031,2.998-2.891,2.998c-1.847,0-2.879-1.047-2.879-2.998v-4.479H110.562z"/>
		<path fill="#FFFFFF" d="M119.119,60.433v7.386h-0.555v-7.386H119.119z"/>
		<path fill="#FFFFFF" d="M124.153,60.433c2.301,0,3.445,1.253,3.445,3.699c0,2.457-1.144,3.687-3.445,3.687h-2.222v-7.386H124.153z
			 M122.498,67.289h1.609c2.006,0,2.926-1.01,2.926-3.157c0-2.16-0.92-3.171-2.926-3.171h-1.609V67.289z"/>
		<path fill="#FFFFFF" d="M136.61,64.12c0,2.493-1.089,3.801-3.366,3.801c-2.268,0-3.355-1.308-3.355-3.801
			c0-2.494,1.089-3.803,3.355-3.803C135.521,60.317,136.61,61.627,136.61,64.12z M136.043,64.12c0-2.183-0.841-3.263-2.8-3.263
			c-1.949,0-2.799,1.08-2.799,3.263c0,2.193,0.85,3.261,2.799,3.261C135.204,67.381,136.043,66.313,136.043,64.12z"/>
		<path fill="#FFFFFF" d="M143.818,67.818l-1.96-3.067h-2.097v3.067h-0.567v-7.386h2.584c1.542,0,2.414,0.77,2.414,2.126
			c0,1.527-1.156,2.01-1.745,2.102l2.028,3.158H143.818L143.818,67.818z M139.762,60.973v3.238h1.982
			c1.45,0,1.882-0.747,1.882-1.618c0-0.828-0.374-1.621-1.882-1.621L139.762,60.973L139.762,60.973z"/>
		<path fill="#FFFFFF" d="M152.943,67.818h-0.601c-0.317-0.77-0.612-1.563-0.929-2.344h-3.424l-0.918,2.344h-0.612
			c0.998-2.458,1.973-4.928,2.97-7.386h0.556L152.943,67.818z M148.206,64.936h3.003l-1.507-3.813L148.206,64.936z"/>
	</g>
</g>
</svg>
