<?xml version="1.0" encoding="utf-8"?>
<!-- Generator: Adobe Illustrator 16.0.0, SVG Export Plug-In . SVG Version: 6.00 Build 0)  -->
<!DOCTYPE svg PUBLIC "-//W3C//DTD SVG 1.1//EN" "http://www.w3.org/Graphics/SVG/1.1/DTD/svg11.dtd">
<svg version="1.1" id="Layer_1" xmlns="http://www.w3.org/2000/svg" xmlns:xlink="http://www.w3.org/1999/xlink" x="0px" y="0px"
	 width="200px" height="100px" viewBox="0 0 200 100" enable-background="new 0 0 200 100" xml:space="preserve">
<g>
	<g>
		<polygon fill="#FFFFFF" points="157.302,23.484 150.796,49.434 165.339,49.434 163.612,56.155 140.429,56.155 148.661,23.484 		
			"/>
		<path fill="#FFFFFF" d="M137.554,23.454v32.701h-8.475l-0.015-6.48h-9.959l-3.964,6.48h-9.263l20.083-32.672L137.554,23.454z
			 M129.095,33.626l-5.901,9.434h5.871L129.095,33.626z"/>
		<polygon fill="#FFFFFF" points="94.5,56.155 102.732,23.484 111.237,23.484 103.051,56.155 		"/>
		<polygon fill="#FFFFFF" points="85.406,23.484 78.898,49.434 93.44,49.434 91.73,56.155 68.531,56.155 76.765,23.484 		"/>
		<polygon fill="#FFFFFF" points="57.244,56.155 65.46,23.484 73.965,23.484 65.793,56.155 		"/>
		<polygon fill="#FFFFFF" points="33.817,45.546 32.198,52.011 41.564,51.996 43.185,45.53 		"/>
		<polygon fill="#FFFFFF" points="36.571,34.544 34.966,40.966 58.243,40.949 59.86,34.515 		"/>
		<polygon fill="#C9C9C9" points="34.726,53.065 40.521,56.155 41.308,53.065 		"/>
		<polygon fill="#C9C9C9" points="37.344,41.824 43.35,44.853 44.107,41.824 		"/>
		<polygon fill="#C9C9C9" points="39.84,30.762 46.075,34.003 46.877,30.762 		"/>
		<polygon fill="#FFFFFF" points="39.341,23.484 37.737,29.92 61.056,29.723 62.616,23.484 		"/>
	</g>
	<g>
		<path fill="#FFFFFF" d="M60.654,63.331c2.837,0,4.249,1.546,4.249,4.563c0,3.03-1.412,4.547-4.249,4.547h-2.74v-9.109H60.654z
			 M58.612,71.788h1.984c2.475,0,3.606-1.246,3.606-3.895c0-2.664-1.132-3.91-3.606-3.91h-1.984V71.788z"/>
		<path fill="#FFFFFF" d="M68.706,63.331v9.109h-0.685v-9.109H68.706z"/>
		<path fill="#FFFFFF" d="M77.639,70.117c0,1.43-1.063,2.45-3.145,2.45c-1.146,0-2.055-0.283-2.74-0.622v-0.751
			c0.615,0.354,1.495,0.681,2.684,0.681c1.412,0,2.487-0.555,2.487-1.758c0-2.875-5.13-1.331-5.13-4.463
			c0-1.261,0.825-2.464,2.963-2.464c0.951,0,1.747,0.241,2.391,0.554v0.722c-0.587-0.311-1.384-0.582-2.32-0.582
			c-1.539,0-2.32,0.681-2.32,1.771C72.508,68.034,77.639,66.646,77.639,70.117z"/>
		<path fill="#FFFFFF" d="M87.159,63.331v0.681h-3.257v8.429h-0.698v-8.429h-3.271v-0.681H87.159z"/>
		<path fill="#FFFFFF" d="M95.532,72.44l-2.418-3.783h-2.585v3.783H89.83v-9.109h3.187c1.901,0,2.978,0.949,2.978,2.622
			c0,1.884-1.426,2.479-2.153,2.592l2.501,3.896H95.532L95.532,72.44z M90.53,63.997v3.994h2.447c1.789,0,2.32-0.921,2.32-1.996
			c0-1.021-0.461-1.999-2.32-1.999L90.53,63.997L90.53,63.997z"/>
		<path fill="#FFFFFF" d="M99.84,63.331v9.109h-0.685v-9.109H99.84z"/>
		<path fill="#FFFFFF" d="M109.695,69.961c0,1.643-1.175,2.479-3.117,2.479h-3.256v-9.109h2.948c2.208,0,2.906,1.119,2.906,2.31
			c0,1.331-0.853,1.925-1.286,1.997C108.338,67.682,109.695,68.204,109.695,69.961z M106.339,63.997h-2.334v3.429h2.419
			c1.188,0,2.069-0.439,2.069-1.7C108.493,64.536,107.724,63.997,106.339,63.997z M108.996,69.904c0-1.486-1.175-1.826-2.391-1.826
			h-2.601v3.711h2.629C107.947,71.788,108.996,71.32,108.996,69.904z"/>
		<path fill="#FFFFFF" d="M113.288,63.331v5.554c0,2.025,0.979,3.046,2.851,3.046c1.888,0,2.866-1.021,2.866-3.046v-5.554h0.699
			v5.525c0,2.406-1.272,3.697-3.565,3.697c-2.277,0-3.551-1.291-3.551-3.697v-5.525H113.288z"/>
		<path fill="#FFFFFF" d="M123.843,63.331v9.109h-0.685v-9.109H123.843z"/>
		<path fill="#FFFFFF" d="M130.051,63.331c2.838,0,4.25,1.546,4.25,4.563c0,3.03-1.411,4.547-4.25,4.547h-2.739v-9.109H130.051z
			 M128.01,71.788h1.985c2.474,0,3.607-1.246,3.607-3.895c0-2.664-1.134-3.91-3.607-3.91h-1.985V71.788z"/>
		<path fill="#FFFFFF" d="M145.415,67.879c0,3.075-1.343,4.688-4.151,4.688c-2.797,0-4.139-1.613-4.139-4.688
			s1.343-4.689,4.139-4.689C144.071,63.189,145.415,64.805,145.415,67.879z M144.715,67.879c0-2.691-1.036-4.023-3.452-4.023
			c-2.404,0-3.452,1.332-3.452,4.023c0,2.705,1.048,4.022,3.452,4.022C143.681,71.901,144.715,70.584,144.715,67.879z"/>
		<path fill="#FFFFFF" d="M154.306,72.44l-2.418-3.783h-2.586v3.783h-0.7v-9.109h3.188c1.902,0,2.978,0.949,2.978,2.622
			c0,1.884-1.426,2.479-2.152,2.592l2.502,3.896H154.306L154.306,72.44z M149.302,63.997v3.994h2.445
			c1.789,0,2.321-0.921,2.321-1.996c0-1.021-0.462-1.999-2.321-1.999L149.302,63.997L149.302,63.997z"/>
		<path fill="#FFFFFF" d="M165.56,72.44h-0.741c-0.391-0.949-0.755-1.928-1.146-2.891h-4.222l-1.133,2.891h-0.755
			c1.23-3.031,2.433-6.077,3.662-9.109h0.686L165.56,72.44z M159.717,68.885h3.704l-1.859-4.703L159.717,68.885z"/>
	</g>
</g>
</svg>
