<?xml version="1.0" encoding="utf-8"?>
<!-- Generator: Adobe Illustrator 16.0.0, SVG Export Plug-In . SVG Version: 6.00 Build 0)  -->
<!DOCTYPE svg PUBLIC "-//W3C//DTD SVG 1.1//EN" "http://www.w3.org/Graphics/SVG/1.1/DTD/svg11.dtd">
<svg version="1.1" id="Layer_1" xmlns="http://www.w3.org/2000/svg" xmlns:xlink="http://www.w3.org/1999/xlink" x="0px" y="0px"
	 width="200px" height="100px" viewBox="0 0 200 100" enable-background="new 0 0 200 100" xml:space="preserve">
<g>
	<g>
		<rect x="70.264" y="0.332" fill="#FFFFFF" width="7.507" height="59.132"/>
		<rect x="121.867" y="0.356" fill="#FFFFFF" width="7.507" height="59.107"/>
		<path fill="#FFFFFF" d="M91.749,59.464h-9.215c0,0,2.978-0.287,5.983-3.33c2.9-2.936,3.231-5.884,3.231-5.884V59.464z"/>
		<path fill="#FFFFFF" d="M111.703,46.921L97.466,0.332h-3.188h-8.016h-1.197c0,0,3.335-0.027,5.98,3.332
			c0.867,1.098,1.434,2.072,1.809,2.879l0.724,2.383v0.002l0,0l15.386,50.541L111.703,46.921z"/>
		<path fill="#FFFFFF" d="M111.121,59.469"/>
		<path fill="#FFFFFF" d="M121.867,0.356"/>
		<path fill="#FFFFFF" d="M108.964,59.469"/>
		<path fill="#FFFFFF" d="M121.867,0.356"/>
	</g>
	<g>
		<path fill="#FFFFFF" d="M32.294,85.166c-0.229,0.088-0.385,0.251-0.47,0.489s-0.128,0.619-0.128,1.142v10.362
			c0,0.523,0.043,0.902,0.128,1.138c0.085,0.234,0.241,0.393,0.47,0.474c0.227,0.082,0.592,0.122,1.096,0.122h1.529
			c0.87,0,1.532-0.122,1.984-0.366c0.452-0.245,0.778-0.636,0.979-1.174c0.2-0.536,0.355-1.326,0.464-2.365h0.479
			c-0.04,0.435-0.062,1.007-0.062,1.713c0,0.789,0.048,1.68,0.144,2.672c-0.945-0.04-2.539-0.061-4.783-0.061
			c-2.673,0-4.691,0.021-6.059,0.061v-0.418c0.504-0.02,0.869-0.075,1.097-0.162c0.229-0.09,0.384-0.253,0.47-0.49
			c0.084-0.238,0.127-0.619,0.127-1.143V86.797c0-0.522-0.043-0.903-0.127-1.142c-0.086-0.238-0.241-0.401-0.47-0.489
			c-0.228-0.089-0.593-0.143-1.097-0.163v-0.419c0.578,0.041,1.469,0.062,2.673,0.062c1.128,0,2.012-0.021,2.651-0.062v0.419
			C32.886,85.023,32.521,85.077,32.294,85.166z"/>
		<path fill="#FFFFFF" d="M52.245,98.954v0.418c-0.571-0.04-1.319-0.061-2.244-0.061c-1.19,0-2.08,0.021-2.672,0.061v-0.418
			c0.53-0.02,0.909-0.085,1.137-0.193s0.342-0.303,0.342-0.581c0-0.239-0.081-0.564-0.245-0.979l-1.284-3.427H42.24l-0.857,2.213
			c-0.278,0.707-0.418,1.278-0.418,1.714c0,0.441,0.148,0.758,0.443,0.947c0.297,0.191,0.753,0.293,1.372,0.307v0.418
			c-0.796-0.04-1.598-0.061-2.407-0.061c-0.625,0-1.146,0.021-1.56,0.061v-0.418c0.693-0.156,1.24-0.761,1.642-1.815l4.916-12.656
			h0.336l5.089,13.136C51.137,98.481,51.619,98.927,52.245,98.954z M44.789,87.124l-2.396,6.23h4.732L44.789,87.124z"/>
		<path fill="#FFFFFF" d="M56.267,85.166c-0.228,0.088-0.385,0.251-0.47,0.489s-0.127,0.619-0.127,1.142v10.362
			c0,0.523,0.042,0.904,0.127,1.143c0.085,0.237,0.242,0.4,0.47,0.49c0.228,0.087,0.593,0.143,1.096,0.162v0.418
			c-0.639-0.04-1.522-0.061-2.651-0.061c-1.197,0-2.087,0.021-2.672,0.061v-0.418c0.503-0.02,0.868-0.075,1.097-0.162
			c0.228-0.09,0.384-0.253,0.469-0.49c0.085-0.238,0.127-0.619,0.127-1.143V86.797c0-0.522-0.042-0.903-0.127-1.142
			s-0.241-0.401-0.469-0.489c-0.229-0.089-0.594-0.143-1.097-0.163v-0.419c0.578,0.041,1.469,0.062,2.672,0.062
			c1.129,0,2.013-0.021,2.651-0.062v0.419C56.859,85.023,56.494,85.077,56.267,85.166z"/>
		<path fill="#FFFFFF" d="M64.168,84.457c0.31,0.071,0.566,0.16,0.771,0.265c0.203,0.106,0.428,0.239,0.673,0.403
			c0.313,0.197,0.551,0.295,0.713,0.295c0.13,0,0.229-0.072,0.297-0.219c0.067-0.146,0.122-0.378,0.163-0.698h0.479
			c-0.067,0.816-0.102,2.237-0.102,4.263h-0.479c-0.054-0.714-0.209-1.373-0.464-1.978c-0.255-0.606-0.629-1.097-1.122-1.475
			c-0.493-0.377-1.106-0.566-1.841-0.566c-0.489,0-0.928,0.103-1.315,0.307c-0.388,0.203-0.69,0.489-0.907,0.856
			c-0.218,0.367-0.326,0.789-0.326,1.265c0,0.53,0.12,0.989,0.361,1.377s0.551,0.724,0.928,1.01c0.378,0.285,0.91,0.639,1.597,1.061
			l0.622,0.377c0.877,0.552,1.57,1.029,2.08,1.433c0.511,0.405,0.918,0.875,1.224,1.408c0.307,0.533,0.46,1.154,0.46,1.861
			c0,0.856-0.197,1.582-0.592,2.177c-0.395,0.596-0.927,1.043-1.597,1.342s-1.419,0.448-2.248,0.448
			c-0.667,0-1.214-0.069-1.643-0.209c-0.428-0.14-0.833-0.327-1.214-0.566c-0.313-0.196-0.551-0.295-0.713-0.295
			c-0.13,0-0.229,0.073-0.297,0.219c-0.067,0.146-0.121,0.379-0.162,0.698h-0.479c0.054-0.762,0.081-2.431,0.081-5.007h0.479
			c0.096,1.414,0.442,2.558,1.04,3.432c0.599,0.874,1.52,1.311,2.765,1.311c0.476,0,0.919-0.099,1.33-0.296
			c0.412-0.196,0.745-0.505,1-0.923s0.382-0.94,0.382-1.565c0-0.537-0.131-1.018-0.393-1.442s-0.617-0.814-1.065-1.168
			s-1.047-0.755-1.795-1.204c-0.83-0.496-1.496-0.941-1.999-1.336s-0.916-0.865-1.239-1.412c-0.322-0.547-0.484-1.192-0.484-1.934
			c0-0.788,0.179-1.454,0.535-1.999c0.357-0.543,0.833-0.949,1.428-1.218c0.595-0.27,1.25-0.403,1.964-0.403
			C63.489,84.35,63.858,84.386,64.168,84.457z"/>
		<path fill="#FFFFFF" d="M81.672,98.954v0.418c-0.571-0.04-1.319-0.061-2.244-0.061c-1.189,0-2.08,0.021-2.672,0.061v-0.418
			c0.531-0.02,0.909-0.085,1.138-0.193c0.228-0.108,0.342-0.303,0.342-0.581c0-0.239-0.082-0.564-0.245-0.979l-1.285-3.427h-5.038
			l-0.856,2.213c-0.279,0.707-0.418,1.278-0.418,1.714c0,0.441,0.147,0.758,0.443,0.947c0.296,0.191,0.753,0.293,1.372,0.307v0.418
			c-0.796-0.04-1.599-0.061-2.407-0.061c-0.626,0-1.146,0.021-1.561,0.061v-0.418c0.693-0.156,1.241-0.761,1.642-1.815l4.916-12.656
			h0.336l5.09,13.136C80.563,98.481,81.046,98.927,81.672,98.954z M74.217,87.124l-2.396,6.23h4.732L74.217,87.124z"/>
		<path fill="#FFFFFF" d="M101.907,85.166c-0.228,0.088-0.384,0.251-0.469,0.489s-0.127,0.619-0.127,1.142v10.362
			c0,0.523,0.042,0.904,0.127,1.143c0.085,0.237,0.241,0.4,0.469,0.49c0.228,0.087,0.594,0.143,1.097,0.162v0.418
			c-0.653-0.04-1.537-0.061-2.652-0.061c-1.196,0-2.087,0.021-2.672,0.061v-0.418c0.503-0.02,0.867-0.075,1.092-0.162
			c0.224-0.09,0.378-0.253,0.464-0.49c0.085-0.238,0.128-0.619,0.128-1.143V85.981l-5.029,13.493h-0.336l-5.263-13.554v11.024
			c0,0.537,0.048,0.941,0.143,1.214c0.096,0.271,0.274,0.467,0.535,0.586c0.263,0.119,0.669,0.189,1.22,0.209v0.418
			c-0.497-0.04-1.207-0.061-2.132-0.061c-0.829,0-1.476,0.021-1.938,0.061v-0.418c0.483-0.02,0.842-0.09,1.076-0.209
			s0.396-0.314,0.485-0.586c0.088-0.272,0.132-0.677,0.132-1.214V86.797c0-0.522-0.042-0.903-0.127-1.142s-0.241-0.401-0.47-0.489
			c-0.228-0.089-0.593-0.143-1.097-0.163v-0.419c0.456,0.041,1.103,0.062,1.938,0.062c0.734,0,1.329-0.021,1.785-0.062L94.875,96.7
			l4.488-12.055h0.988c1.115,0,1.999-0.021,2.652-0.062v0.419C102.501,85.023,102.135,85.077,101.907,85.166z"/>
		<path fill="#FFFFFF" d="M116.657,98.954v0.418c-0.57-0.04-1.318-0.061-2.243-0.061c-1.19,0-2.081,0.021-2.672,0.061v-0.418
			c0.53-0.02,0.909-0.085,1.137-0.193c0.229-0.108,0.342-0.303,0.342-0.581c0-0.239-0.081-0.564-0.245-0.979l-1.284-3.427h-5.039
			l-0.855,2.213c-0.279,0.707-0.419,1.278-0.419,1.714c0,0.441,0.148,0.758,0.443,0.947c0.296,0.191,0.754,0.293,1.372,0.307v0.418
			c-0.795-0.04-1.597-0.061-2.406-0.061c-0.625,0-1.146,0.021-1.561,0.061v-0.418c0.693-0.156,1.241-0.761,1.642-1.815l4.916-12.656
			h0.336l5.089,13.136C115.55,98.481,116.032,98.927,116.657,98.954z M109.202,87.124l-2.396,6.23h4.732L109.202,87.124z"/>
		<path fill="#FFFFFF" d="M128.394,99.352c-0.319,0.211-0.741,0.316-1.264,0.316c-0.572,0-1.041-0.166-1.408-0.499
			c-0.367-0.334-0.646-0.922-0.836-1.765l-0.459-2.08c-0.163-0.728-0.318-1.287-0.464-1.679c-0.146-0.391-0.367-0.703-0.663-0.938
			c-0.295-0.234-0.705-0.353-1.229-0.353h-1.988v4.804c0,0.523,0.042,0.904,0.127,1.143c0.085,0.237,0.24,0.4,0.469,0.49
			c0.228,0.087,0.594,0.143,1.097,0.162v0.418c-0.64-0.04-1.523-0.061-2.651-0.061c-1.197,0-2.088,0.021-2.672,0.061v-0.418
			c0.502-0.02,0.868-0.075,1.095-0.162c0.229-0.09,0.385-0.253,0.47-0.49c0.086-0.238,0.128-0.619,0.128-1.143V86.797
			c0-0.522-0.042-0.903-0.128-1.142c-0.085-0.238-0.241-0.401-0.47-0.489c-0.227-0.089-0.593-0.143-1.095-0.163v-0.419
			c0.584,0.041,1.435,0.062,2.55,0.062c0.243,0,0.999-0.01,2.263-0.03l0.889-0.011c1.087,0,2.009,0.158,2.764,0.475
			c0.754,0.316,1.321,0.748,1.703,1.295c0.38,0.548,0.57,1.168,0.57,1.861c0,0.544-0.129,1.093-0.388,1.646
			c-0.258,0.556-0.69,1.052-1.295,1.489c-0.605,0.438-1.397,0.733-2.376,0.883l0.255,0.041c0.626,0.102,1.125,0.256,1.499,0.464
			s0.672,0.491,0.892,0.852c0.222,0.36,0.4,0.839,0.537,1.438l0.52,2.133c0.088,0.428,0.178,0.763,0.27,1.003
			c0.092,0.242,0.201,0.421,0.327,0.535c0.126,0.116,0.284,0.174,0.474,0.174c0.23,0,0.422-0.059,0.571-0.178
			s0.34-0.325,0.571-0.617l0.316,0.235C129.036,98.801,128.714,99.141,128.394,99.352z M120.653,85.15
			c-0.217,0.099-0.367,0.274-0.448,0.525c-0.082,0.251-0.122,0.625-0.122,1.121v5.141h1.406c0.938,0,1.673-0.149,2.204-0.449
			c0.53-0.299,0.896-0.699,1.101-1.203c0.204-0.503,0.306-1.107,0.306-1.814c0-1.143-0.271-2.007-0.815-2.592
			c-0.544-0.584-1.429-0.876-2.652-0.876C121.197,85.003,120.871,85.053,120.653,85.15z"/>
		<path fill="#FFFFFF" d="M140.661,87.257c0,0.7,0.021,1.271,0.062,1.713h-0.479c-0.109-1.081-0.247-1.881-0.413-2.402
			c-0.166-0.52-0.459-0.9-0.877-1.142s-1.059-0.362-1.922-0.362h-1.133v11.882c0,0.578,0.055,1.001,0.163,1.27
			s0.306,0.454,0.591,0.556c0.287,0.102,0.738,0.164,1.357,0.184v0.418c-0.734-0.04-1.758-0.061-3.069-0.061
			c-1.395,0-2.425,0.021-3.091,0.061v-0.418c0.618-0.02,1.071-0.082,1.356-0.184c0.286-0.102,0.482-0.287,0.592-0.556
			c0.108-0.269,0.162-0.691,0.162-1.27V85.063h-1.132c-0.862,0-1.503,0.121-1.922,0.362c-0.418,0.241-0.71,0.622-0.877,1.142
			c-0.167,0.521-0.305,1.321-0.413,2.402h-0.479c0.041-0.441,0.061-1.013,0.061-1.713c0-0.816-0.05-1.707-0.152-2.673
			c1.156,0.041,3.121,0.062,5.896,0.062c2.753,0,4.708-0.021,5.863-0.062C140.709,85.577,140.661,86.467,140.661,87.257z"/>
		<path fill="#FFFFFF" d="M145.998,85.166c-0.229,0.088-0.384,0.251-0.469,0.489s-0.127,0.619-0.127,1.142v10.362
			c0,0.523,0.042,0.904,0.127,1.143c0.085,0.237,0.24,0.4,0.469,0.49c0.228,0.087,0.594,0.143,1.097,0.162v0.418
			c-0.64-0.04-1.523-0.061-2.652-0.061c-1.196,0-2.087,0.021-2.671,0.061v-0.418c0.502-0.02,0.868-0.075,1.095-0.162
			c0.229-0.09,0.385-0.253,0.47-0.49c0.086-0.238,0.128-0.619,0.128-1.143V86.797c0-0.522-0.042-0.903-0.128-1.142
			c-0.085-0.238-0.241-0.401-0.47-0.489c-0.227-0.089-0.593-0.143-1.095-0.163v-0.419c0.577,0.041,1.468,0.062,2.671,0.062
			c1.129,0,2.013-0.021,2.652-0.062v0.419C146.592,85.023,146.226,85.077,145.998,85.166z"/>
		<path fill="#FFFFFF" d="M160.366,85.212c-0.235,0.118-0.396,0.313-0.484,0.586c-0.089,0.272-0.133,0.677-0.133,1.214v12.463
			h-0.479l-8.771-13.554v11.024c0,0.537,0.048,0.941,0.145,1.214c0.095,0.271,0.272,0.467,0.535,0.586
			c0.262,0.119,0.667,0.189,1.219,0.209v0.418c-0.496-0.04-1.208-0.061-2.132-0.061c-0.83,0-1.476,0.021-1.938,0.061v-0.418
			c0.482-0.02,0.841-0.09,1.076-0.209c0.234-0.119,0.396-0.314,0.483-0.586c0.089-0.272,0.133-0.677,0.133-1.214V86.797
			c0-0.522-0.042-0.903-0.128-1.142c-0.085-0.238-0.24-0.401-0.469-0.489c-0.228-0.089-0.594-0.143-1.096-0.163v-0.419
			c0.454,0.041,1.101,0.062,1.938,0.062c0.626,0,1.169-0.021,1.631-0.062l7.374,11.362v-8.935c0-0.537-0.046-0.941-0.138-1.214
			s-0.27-0.468-0.535-0.586c-0.265-0.119-0.673-0.188-1.224-0.209v-0.419c0.496,0.041,1.207,0.062,2.131,0.062
			c0.83,0,1.476-0.021,1.938-0.062v0.419C160.959,85.023,160.601,85.093,160.366,85.212z"/>
		<path fill="#FFFFFF" d="M168.125,84.457c0.31,0.071,0.566,0.16,0.77,0.265c0.205,0.106,0.43,0.239,0.674,0.403
			c0.313,0.197,0.55,0.295,0.714,0.295c0.129,0,0.229-0.072,0.295-0.219c0.068-0.146,0.123-0.378,0.164-0.698h0.479
			c-0.068,0.816-0.103,2.237-0.103,4.263h-0.479c-0.055-0.714-0.21-1.373-0.464-1.978c-0.256-0.606-0.63-1.097-1.123-1.475
			c-0.493-0.377-1.105-0.566-1.841-0.566c-0.488,0-0.928,0.103-1.315,0.307c-0.388,0.203-0.69,0.489-0.907,0.856
			c-0.219,0.367-0.327,0.789-0.327,1.265c0,0.53,0.121,0.989,0.363,1.377c0.24,0.388,0.55,0.724,0.928,1.01
			c0.378,0.285,0.909,0.639,1.596,1.061l0.623,0.377c0.876,0.552,1.569,1.029,2.08,1.433c0.51,0.405,0.918,0.875,1.224,1.408
			s0.459,1.154,0.459,1.861c0,0.856-0.197,1.582-0.592,2.177c-0.395,0.596-0.927,1.043-1.597,1.342
			c-0.669,0.299-1.419,0.448-2.249,0.448c-0.665,0-1.213-0.069-1.641-0.209c-0.429-0.14-0.833-0.327-1.214-0.566
			c-0.313-0.196-0.551-0.295-0.714-0.295c-0.129,0-0.229,0.073-0.296,0.219c-0.068,0.146-0.123,0.379-0.163,0.698h-0.479
			c0.055-0.762,0.082-2.431,0.082-5.007h0.479c0.095,1.414,0.441,2.558,1.039,3.432c0.599,0.874,1.52,1.311,2.764,1.311
			c0.477,0,0.92-0.099,1.332-0.296c0.411-0.196,0.744-0.505,0.999-0.923s0.383-0.94,0.383-1.565c0-0.537-0.132-1.018-0.394-1.442
			c-0.261-0.425-0.616-0.814-1.065-1.168c-0.448-0.354-1.047-0.755-1.795-1.204c-0.829-0.496-1.496-0.941-1.999-1.336
			s-0.916-0.865-1.239-1.412c-0.322-0.547-0.483-1.192-0.483-1.934c0-0.788,0.178-1.454,0.535-1.999
			c0.356-0.543,0.832-0.949,1.428-1.218c0.595-0.27,1.249-0.403,1.963-0.403C167.447,84.35,167.815,84.386,168.125,84.457z"/>
	</g>
</g>
<g>
</g>
<g>
</g>
<g>
</g>
<g>
</g>
<g>
</g>
<g>
</g>
<g>
</g>
<g>
</g>
<g>
</g>
<g>
</g>
<g>
</g>
<g>
</g>
<g>
</g>
<g>
</g>
<g>
</g>
</svg>
