<?xml version="1.0" encoding="utf-8"?>
<!-- Generator: Adobe Illustrator 16.0.0, SVG Export Plug-In . SVG Version: 6.00 Build 0)  -->
<!DOCTYPE svg PUBLIC "-//W3C//DTD SVG 1.1//EN" "http://www.w3.org/Graphics/SVG/1.1/DTD/svg11.dtd">
<svg version="1.1" id="Layer_1" xmlns="http://www.w3.org/2000/svg" xmlns:xlink="http://www.w3.org/1999/xlink" x="0px" y="0px"
	 width="200px" height="100px" viewBox="0 0 200 100" enable-background="new 0 0 200 100" xml:space="preserve">
<g>
	<g>
		<polygon fill-rule="evenodd" clip-rule="evenodd" fill="#AF1112" points="134.731,14.601 140.733,0.737 110.756,0.737 
			117.201,14.602 		"/>
		<polygon fill-rule="evenodd" clip-rule="evenodd" fill="#0B121C" points="95.503,0.74 95.175,0.904 87.789,16.782 110.671,65.846 
			118.129,49.655 		"/>
		<polygon fill-rule="evenodd" clip-rule="evenodd" fill="#141C29" points="80.624,0.729 95.503,0.74 65.643,65.572 50.604,65.568 
					"/>
		<polygon fill-rule="evenodd" clip-rule="evenodd" fill="#0B121C" points="89.208,52.144 95.356,65.846 65.283,65.838 
			71.669,52.131 		"/>
		<polygon fill-rule="evenodd" clip-rule="evenodd" fill="#101723" points="80.624,0.729 95.503,0.74 87.948,17.144 		"/>
		<polygon fill-rule="evenodd" clip-rule="evenodd" fill="#101723" points="50.481,65.838 65.521,65.84 71.804,52.134 56.825,52.14 
					"/>
		<polygon fill-rule="evenodd" clip-rule="evenodd" fill="#C21A1A" points="155.832,0.737 125.777,65.846 110.671,65.846 
			140.56,0.737 		"/>
		<polygon fill-rule="evenodd" clip-rule="evenodd" fill="#B91616" points="118.129,49.655 125.777,65.846 110.671,65.846 		"/>
		<polygon fill-rule="evenodd" clip-rule="evenodd" fill="#B91616" points="134.195,14.597 140.56,0.737 155.832,0.737 
			149.37,14.736 		"/>
	</g>
	<path fill-rule="evenodd" clip-rule="evenodd" fill="#141C29" d="M26.308,96.225c0.231-3.164,1.243-5.726,3.318-8.389v-0.617
		h-5.815v0.499h5.305c-2.063,2.717-3.165,5.599-3.435,8.507H26.308L26.308,96.225z M181.162,94.59
		c0.611,1.399,1.691,2.014,2.981,2.014c1.699,0,3.019-0.921,3.019-2.547c0-1.123-0.669-1.936-3.028-2.842
		c-1.694-0.654-2.24-1.107-2.24-2.106c0-1.159,1.014-1.722,2.202-1.722c1.146,0,1.984,0.509,2.572,1.413l0.44-0.345
		c-0.668-1.029-1.707-1.575-2.975-1.575c-1.56,0-2.825,0.747-2.825,2.282c0,1.092,0.639,1.866,2.479,2.533
		c2.123,0.772,2.787,1.455,2.787,2.307c0,1.281-0.892,2.096-2.401,2.096c-1.195,0-2.093-0.631-2.522-1.804L181.162,94.59
		L181.162,94.59z M43.526,96.43l-2.628-4.2c1.575,0,2.589-1.174,2.589-2.588s-0.976-2.588-2.48-2.588h-3.922v9.376h0.561v-4.2h2.587
		l2.627,4.2H43.526L43.526,96.43z M37.646,91.72v-4.157h3.32c1.188,0,1.934,0.946,1.934,2.079s-0.745,2.078-1.934,2.078H37.646
		L37.646,91.72z M54.448,96.43v-0.508h-5.336v-4.146h3.856V91.27h-3.856v-3.707h5.068v-0.509h-5.629v9.376H54.448L54.448,96.43z
		 M59.899,96.43v-4.12h3.361c1.505,0,2.479-1.215,2.479-2.628c0-1.415-0.975-2.628-2.479-2.628h-3.923v9.376H59.899L59.899,96.43z
		 M59.899,91.802v-4.239h3.321c1.187,0,1.934,0.985,1.934,2.119c0,1.136-0.747,2.12-1.934,2.12H59.899L59.899,91.802z M77.008,96.43
		l-2.628-4.2c1.574,0,2.589-1.174,2.589-2.588s-0.976-2.588-2.481-2.588h-3.921v9.376h0.561v-4.2h2.586l2.63,4.2H77.008
		L77.008,96.43z M71.127,91.72v-4.157h3.321c1.187,0,1.932,0.946,1.932,2.079s-0.745,2.078-1.932,2.078H71.127L71.127,91.72z
		 M87.929,96.43v-0.508h-5.336v-4.146h3.854V91.27h-3.854v-3.707h5.069v-0.509h-5.628v9.376H87.929L87.929,96.43z M92.087,94.59
		c0.615,1.399,1.693,2.014,2.986,2.014c1.695,0,3.017-0.921,3.017-2.547c0-1.123-0.667-1.936-3.03-2.842
		c-1.691-0.654-2.239-1.107-2.239-2.106c0-1.159,1.014-1.722,2.202-1.722c1.147,0,1.985,0.509,2.574,1.413l0.438-0.345
		c-0.666-1.029-1.708-1.575-2.976-1.575c-1.559,0-2.826,0.747-2.826,2.282c0,1.092,0.643,1.866,2.481,2.533
		c2.121,0.772,2.788,1.455,2.788,2.307c0,1.281-0.895,2.096-2.4,2.096c-1.202,0-2.094-0.631-2.522-1.804L92.087,94.59L92.087,94.59z
		 M109.076,96.43v-0.508h-5.335v-4.146h3.855V91.27h-3.855v-3.707h5.066v-0.509h-5.625v9.376H109.076L109.076,96.43z M120.636,96.43
		v-9.376h-0.558v8.496l-5.494-8.496h-0.613v9.376h0.56v-8.48l5.479,8.48H120.636L120.636,96.43z M128.81,96.43v-8.881h2.869v-0.495
		h-6.283v0.509h2.854v8.867H128.81L128.81,96.43z M139.681,87.054l3.344,9.376h-0.588l-3.064-8.683l-3.082,8.683h-0.586l3.346-9.376
		H139.681L139.681,87.054z M149.439,99.043c0.398,0.161,0.879,0.228,1.186,0.228c0.987,0,1.535-0.44,1.535-1.027
		c0-0.56-0.455-0.918-1.068-0.918c-0.241,0-0.455,0.05-0.651,0.145l0.422-0.88c1.282-0.064,2.285-0.802,2.884-1.921l-0.535-0.228
		c-0.534,1.014-1.399,1.656-2.531,1.656c-1.95,0-3.175-1.948-3.175-4.363c0-2.412,1.255-4.348,3.199-4.348
		c1.306,0,2.255,0.855,2.766,2.148l0.528-0.201c-0.584-1.48-1.72-2.454-3.294-2.454c-2.333,0-3.786,2.162-3.786,4.854
		c0,2.615,1.333,4.734,3.545,4.855l-0.572,1.201l0.362,0.093c0.174-0.078,0.427-0.174,0.704-0.174c0.428,0,0.696,0.228,0.696,0.533
		c0,0.321-0.309,0.641-1.057,0.641c-0.294,0-0.787-0.123-1.054-0.24L149.439,99.043L149.439,99.043z M162.32,96.604
		c2.333,0,3.759-2.162,3.759-4.854c0-2.694-1.426-4.869-3.759-4.869c-2.338,0-3.763,2.175-3.763,4.869
		C158.558,94.441,159.982,96.604,162.32,96.604L162.32,96.604z M162.32,96.098c-1.948,0-3.175-1.935-3.175-4.349
		c0-2.415,1.227-4.362,3.175-4.362c1.961,0,3.174,1.947,3.174,4.362C165.494,94.163,164.281,96.098,162.32,96.098L162.32,96.098z
		 M164,84.6c-0.106,0.453-0.281,0.76-0.762,0.76c-0.569,0-0.918-0.785-1.761-0.785c-0.733,0-1.159,0.479-1.227,1.226l0.43,0.055
		c0.103-0.456,0.36-0.79,0.771-0.79c0.641,0,0.922,0.79,1.735,0.79c0.692,0,1.094-0.363,1.227-1.189L164,84.6L164,84.6z M177,96.43
		v-0.508h-5.334v-4.146h3.855V91.27h-3.855v-3.707h5.066v-0.509h-5.626v9.376H177L177,96.43z M16.656,87.219l3.217,9.006h-0.564
		l-2.947-8.34l-2.959,8.34h-0.564l3.217-9.006H16.656z"/>
</g>
<g>
</g>
<g>
</g>
<g>
</g>
<g>
</g>
<g>
</g>
<g>
</g>
<g>
</g>
<g>
</g>
<g>
</g>
<g>
</g>
<g>
</g>
<g>
</g>
<g>
</g>
<g>
</g>
<g>
</g>
</svg>
